<svg xmlns="http://www.w3.org/2000/svg" width="29.257" height="37.151" viewBox="0 0 29.257 37.151">
  <g id="Group_2541" data-name="Group 2541" transform="translate(0)">
    <g id="Group_977" data-name="Group 977" transform="translate(0 0)">
      <path id="Subtraction_21" data-name="Subtraction 21" d="M26.515,37.151H2.741a2.745,2.745,0,0,1-1.933-.8A2.7,2.7,0,0,1,0,34.44V2.712A2.7,2.7,0,0,1,.809.8,2.744,2.744,0,0,1,2.741,0H20.156V6.935A2.365,2.365,0,0,0,22.53,9.288h6.726V34.44a2.7,2.7,0,0,1-.809,1.915A2.744,2.744,0,0,1,26.515,37.151ZM28.309,7.937H22.528a1.007,1.007,0,0,1-1.011-1V1l6.791,6.936Z" transform="translate(0)" fill="#2362c7"/>
      <g id="Group_1102" data-name="Group 1102" transform="translate(7.012 12.774)">
        <path id="Path_1243" data-name="Path 1243" d="M7.713,0A7.713,7.713,0,1,1,0,7.713,7.713,7.713,0,0,1,7.713,0Z" fill="#f6f6f6"/>
        <g id="Group_1071" data-name="Group 1071" transform="translate(4.531 4.564)">
          <line id="Line_276" data-name="Line 276" y2="6.906" transform="translate(3.453)" fill="none" stroke="#2362c7" stroke-linecap="round" stroke-width="2"/>
          <line id="Line_277" data-name="Line 277" x2="6.592" transform="translate(0 3.453)" fill="none" stroke="#2362c7" stroke-linecap="round" stroke-width="2"/>
        </g>
      </g>
    </g>
  </g>
</svg>
