<svg xmlns="http://www.w3.org/2000/svg" width="32" height="32" viewBox="0 0 32 32">
  <g id="Group_1395" data-name="Group 1395" transform="translate(-29 -31.621)">
    <g id="Group_1394" data-name="Group 1394">
      <g id="Group_1393" data-name="Group 1393">
        <rect id="Rectangle_1010" data-name="Rectangle 1010" width="30" height="28" transform="translate(30 33.621)" fill="#2362c7"/>
      </g>
      <path id="Path_1186" data-name="Path 1186" d="M22.616,10.116,13.5,19.232,9.384,15.116a1.25,1.25,0,0,0-1.768,1.768l5,5a1.25,1.25,0,0,0,1.768,0l10-10a1.25,1.25,0,0,0-1.768-1.768Z" transform="translate(29 31.621)" fill="#fff"/>
    </g>
    <path id="Path_1187" data-name="Path 1187" d="M28.25,0H3.75A3.754,3.754,0,0,0,0,3.75v24.5A3.754,3.754,0,0,0,3.75,32h24.5A3.754,3.754,0,0,0,32,28.25V3.75A3.754,3.754,0,0,0,28.25,0ZM29.5,28.25a1.251,1.251,0,0,1-1.25,1.25H3.75A1.251,1.251,0,0,1,2.5,28.25V3.75A1.251,1.251,0,0,1,3.75,2.5h24.5A1.251,1.251,0,0,1,29.5,3.75Z" transform="translate(29 31.621)" fill="#2362c7"/>
  </g>
</svg>
