<svg xmlns="http://www.w3.org/2000/svg" width="50" height="47" viewBox="0 0 50 47">
    <g fill="none" fill-rule="evenodd">
        <rect width="50" height="47" fill="#2362C7" rx="4"/>
        <rect width="48" height="45" x="1" y="1" stroke="#2362C7" stroke-width="2" rx="3"/>
        <path fill="#FFF" fill-rule="nonzero" d="M36.101 13.551L20.877 28.775l-6.874-6.874c-.527-.527-1.295-.733-2.016-.54-.72.193-1.283.756-1.476 1.476-.193.72.013 1.49.54 2.016l8.35 8.35c.392.392.923.612 1.476.612.554 0 1.085-.22 1.476-.612l16.7-16.7c.816-.815.816-2.136 0-2.952-.815-.815-2.136-.815-2.952 0z"/>
    </g>
</svg>
