<svg xmlns="http://www.w3.org/2000/svg" viewBox="0 0 33.257 34.152">
    <g id="prefix__settings" transform="translate(-6.71)">
        <g id="prefix__Group_1729" data-name="Group 1729" transform="translate(6.71)">
            <path id="prefix__Path_1356" d="M39.391 20.818l-3.139-2.455a12.36 12.36 0 0 0 .074-1.289 11.986 11.986 0 0 0-.074-1.289l3.142-2.456a1.539 1.539 0 0 0 .371-1.961L36.5 5.72a1.513 1.513 0 0 0-1.888-.679l-3.7 1.487a12.7 12.7 0 0 0-2.224-1.291l-.564-3.929A1.511 1.511 0 0 0 26.613 0h-6.546a1.507 1.507 0 0 0-1.506 1.3L18 5.241a13.092 13.092 0 0 0-2.22 1.291L12.063 5.04a1.543 1.543 0 0 0-1.874.667L6.92 11.363a1.53 1.53 0 0 0 .37 1.971l3.139 2.455a11.259 11.259 0 0 0 0 2.577l-3.142 2.455a1.54 1.54 0 0 0-.37 1.961l3.264 5.648a1.51 1.51 0 0 0 1.888.679l3.7-1.487A12.812 12.812 0 0 0 18 28.912l.564 3.927a1.51 1.51 0 0 0 1.508 1.312h6.546a1.509 1.509 0 0 0 1.507-1.3l.565-3.942a13.153 13.153 0 0 0 2.22-1.292l3.714 1.491a1.529 1.529 0 0 0 .558.105 1.5 1.5 0 0 0 1.316-.771l3.279-5.678a1.536 1.536 0 0 0-.386-1.946zm-16.051 1.95a5.692 5.692 0 1 1 5.692-5.692 5.7 5.7 0 0 1-5.692 5.692z" data-name="Path 1356" transform="translate(-6.71)" style="fill:#2975eb"/>
        </g>
    </g>
</svg>
