<svg xmlns="http://www.w3.org/2000/svg" viewBox="0 0 46.662 39.155">
  <g id="Group_1731" data-name="Group 1731" transform="translate(23926.016 6069)">
    <path id="Union_58" data-name="Union 58" d="M5.426,31.155a5.424,5.424,0,0,1-3.91-1.444A5.21,5.21,0,0,1,0,25.8c0-.625.021-1.245.061-1.84a18.748,18.748,0,0,1,.249-1.97,15.9,15.9,0,0,1,.478-1.979,9.882,9.882,0,0,1,.8-1.846,6.926,6.926,0,0,1,1.211-1.6,5.342,5.342,0,0,1,1.741-1.108,5.947,5.947,0,0,1,2.221-.408,2.234,2.234,0,0,1,1.2.517c.366.242.788.517,1.255.82a7.133,7.133,0,0,0,1.622.724,6.226,6.226,0,0,0,3.97,0,7.122,7.122,0,0,0,1.623-.724c.472-.3.894-.581,1.255-.819a2.243,2.243,0,0,1,1.2-.517,5.95,5.95,0,0,1,2.221.407,5.342,5.342,0,0,1,1.741,1.108,6.951,6.951,0,0,1,1.211,1.6,9.823,9.823,0,0,1,.8,1.846,15.742,15.742,0,0,1,.478,1.979,18.584,18.584,0,0,1,.249,1.969c.041.593.062,1.212.062,1.84a5.207,5.207,0,0,1-1.517,3.914,5.419,5.419,0,0,1-3.908,1.444ZM7.4,12.81A7.311,7.311,0,0,1,5.228,7.5,7.311,7.311,0,0,1,7.4,2.2,7.124,7.124,0,0,1,12.637,0a7.126,7.126,0,0,1,5.238,2.2A7.312,7.312,0,0,1,20.046,7.5a7.308,7.308,0,0,1-2.171,5.306,7.118,7.118,0,0,1-5.238,2.2A7.127,7.127,0,0,1,7.4,12.81Z" transform="translate(-23905.016 -6069)" fill="#2975eb"/>
    <path id="Union_60" data-name="Union 60" d="M5.426,31.155a5.424,5.424,0,0,1-3.91-1.444A5.21,5.21,0,0,1,0,25.8c0-.625.021-1.245.061-1.84a18.748,18.748,0,0,1,.249-1.97,15.9,15.9,0,0,1,.478-1.979,9.882,9.882,0,0,1,.8-1.846,6.926,6.926,0,0,1,1.211-1.6,5.342,5.342,0,0,1,1.741-1.108,5.947,5.947,0,0,1,2.221-.408,2.234,2.234,0,0,1,1.2.517c.366.242.788.517,1.255.82a7.133,7.133,0,0,0,1.622.724,6.226,6.226,0,0,0,3.97,0,7.122,7.122,0,0,0,1.623-.724c.472-.3.894-.581,1.255-.819a2.243,2.243,0,0,1,1.2-.517,5.95,5.95,0,0,1,2.221.407,5.342,5.342,0,0,1,1.741,1.108,6.951,6.951,0,0,1,1.211,1.6,9.823,9.823,0,0,1,.8,1.846,15.742,15.742,0,0,1,.478,1.979,18.584,18.584,0,0,1,.249,1.969c.041.593.062,1.212.062,1.84a5.207,5.207,0,0,1-1.517,3.914,5.419,5.419,0,0,1-3.908,1.444ZM7.4,12.81A7.311,7.311,0,0,1,5.228,7.5,7.311,7.311,0,0,1,7.4,2.2,7.124,7.124,0,0,1,12.637,0a7.126,7.126,0,0,1,5.238,2.2A7.312,7.312,0,0,1,20.046,7.5a7.308,7.308,0,0,1-2.171,5.306,7.118,7.118,0,0,1-5.238,2.2A7.127,7.127,0,0,1,7.4,12.81Z" transform="translate(-23926.016 -6069)" fill="#2975eb"/>
    <path id="Union_56" data-name="Union 56" d="M5.426,31.155a5.424,5.424,0,0,1-3.91-1.444A5.21,5.21,0,0,1,0,25.8c0-.625.021-1.245.061-1.84a18.748,18.748,0,0,1,.249-1.97,15.9,15.9,0,0,1,.478-1.979,9.882,9.882,0,0,1,.8-1.846,6.926,6.926,0,0,1,1.211-1.6,5.342,5.342,0,0,1,1.741-1.108,5.947,5.947,0,0,1,2.221-.408,2.234,2.234,0,0,1,1.2.517c.366.242.788.517,1.255.82a7.133,7.133,0,0,0,1.622.724,6.226,6.226,0,0,0,3.97,0,7.122,7.122,0,0,0,1.623-.724c.472-.3.894-.581,1.255-.819a2.243,2.243,0,0,1,1.2-.517,5.95,5.95,0,0,1,2.221.407,5.342,5.342,0,0,1,1.741,1.108,6.951,6.951,0,0,1,1.211,1.6,9.823,9.823,0,0,1,.8,1.846,15.742,15.742,0,0,1,.478,1.979,18.584,18.584,0,0,1,.249,1.969c.041.593.062,1.212.062,1.84a5.207,5.207,0,0,1-1.517,3.914,5.419,5.419,0,0,1-3.908,1.444ZM7.4,12.81A7.311,7.311,0,0,1,5.228,7.5,7.311,7.311,0,0,1,7.4,2.2,7.124,7.124,0,0,1,12.637,0a7.126,7.126,0,0,1,5.238,2.2A7.312,7.312,0,0,1,20.046,7.5a7.308,7.308,0,0,1-2.171,5.306,7.118,7.118,0,0,1-5.238,2.2A7.127,7.127,0,0,1,7.4,12.81Z" transform="translate(-23915.016 -6061)" fill="#f2f2f2"/>
  </g>
</svg>
