<svg xmlns="http://www.w3.org/2000/svg" viewBox="0 0 45.215 55.824">
  <g id="Group_2775" data-name="Group 2775" transform="translate(-414.426 -147.697)">
    <g id="Group_2774" data-name="Group 2774">
      <g id="Group_2100" data-name="Group 2100" transform="translate(414.426 147.697)">
        <path id="Union_53" data-name="Union 53" d="M9.56,55.824a9.459,9.459,0,0,1-6.887-2.587A9.417,9.417,0,0,1,0,46.224c0-1.121.036-2.231.108-3.3A33.96,33.96,0,0,1,.547,39.4a28.546,28.546,0,0,1,.842-3.546A17.813,17.813,0,0,1,2.8,32.544,12.44,12.44,0,0,1,4.938,29.68,9.366,9.366,0,0,1,8,27.7a10.312,10.312,0,0,1,3.913-.73,3.9,3.9,0,0,1,2.121.927c.645.433,1.39.927,2.212,1.469a12.455,12.455,0,0,0,2.857,1.3,10.8,10.8,0,0,0,7,0,12.482,12.482,0,0,0,2.86-1.3c.83-.546,1.574-1.04,2.21-1.468a3.908,3.908,0,0,1,2.121-.927,10.322,10.322,0,0,1,3.914.73,9.375,9.375,0,0,1,3.066,1.984,12.431,12.431,0,0,1,2.134,2.865,17.8,17.8,0,0,1,1.416,3.307,28.569,28.569,0,0,1,.842,3.546,34.242,34.242,0,0,1,.439,3.528h0c.072,1.063.109,2.172.11,3.3a9.039,9.039,0,0,1-9.56,9.6Zm3.477-32.872a13.21,13.21,0,0,1-3.824-9.507,13.21,13.21,0,0,1,3.824-9.506A12.448,12.448,0,0,1,22.266,0a12.451,12.451,0,0,1,9.229,3.938,13.211,13.211,0,0,1,3.824,9.507A13.211,13.211,0,0,1,31.5,22.951a12.449,12.449,0,0,1-9.23,3.939A12.453,12.453,0,0,1,13.036,22.952Zm2.246-16.7a9.869,9.869,0,0,0-2.894,7.193,9.867,9.867,0,0,0,2.894,7.193,9.3,9.3,0,0,0,6.983,2.981,9.3,9.3,0,0,0,6.984-2.981,9.869,9.869,0,0,0,2.894-7.193,9.87,9.87,0,0,0-2.894-7.193,9.3,9.3,0,0,0-6.984-2.98A9.3,9.3,0,0,0,15.283,6.252Z" transform="translate(0 0)" fill="#fcfcfc"/>
        <path id="Path_1468" data-name="Path 1468" d="M4895.224,865.8l-4.376-3.784-1.243-5.286.811-6.232,4.808-5.12,5.89-1.447,6.05,1.447,3.511,3.84,1.945,5.676-1.189,7.123-5.564,4.841-6.051,1Z" transform="translate(-4878.785 -842.36)" fill="#fcfcfc"/>
      </g>
      <circle id="Ellipse_374" data-name="Ellipse 374" cx="7" cy="7" r="7" transform="translate(430 185)" fill="#2362c7"/>
    </g>
    <line id="Line_276" data-name="Line 276" y2="5.405" transform="translate(437.392 189.152)" fill="none" stroke="#fcfcfc" stroke-linecap="round" stroke-width="2"/>
    <line id="Line_277" data-name="Line 277" x2="5.159" transform="translate(434.689 191.854)" fill="none" stroke="#fcfcfc" stroke-linecap="round" stroke-width="2"/>
  </g>
</svg>
