<svg viewBox="0 0 41.662 51.155">
  <path d="M8.808,51.155a8.743,8.743,0,0,1-6.346-2.371A8.606,8.606,0,0,1,0,42.358c0-1.027.033-2.044.1-3.02A31.066,31.066,0,0,1,.5,36.1a26.266,26.266,0,0,1,.776-3.249,16.329,16.329,0,0,1,1.3-3.032A11.388,11.388,0,0,1,4.55,27.2a8.64,8.64,0,0,1,2.825-1.819,9.553,9.553,0,0,1,3.606-.669,3.611,3.611,0,0,1,1.954.849c.595.4,1.281.85,2.038,1.346a11.526,11.526,0,0,0,2.633,1.188,10,10,0,0,0,6.446,0A11.533,11.533,0,0,0,26.687,26.9c.765-.5,1.451-.953,2.037-1.345a3.609,3.609,0,0,1,1.955-.85,9.56,9.56,0,0,1,3.606.669A8.648,8.648,0,0,1,37.11,27.2a11.445,11.445,0,0,1,1.967,2.625,16.287,16.287,0,0,1,1.3,3.031,26,26,0,0,1,.776,3.25,31.185,31.185,0,0,1,.4,3.233c.067.974.1,1.991.1,3.021A8.6,8.6,0,0,1,39.2,48.785a8.743,8.743,0,0,1-6.345,2.371Zm3.2-30.123A12.07,12.07,0,0,1,8.488,12.32a12.071,12.071,0,0,1,3.524-8.711A11.5,11.5,0,0,1,20.516,0a11.5,11.5,0,0,1,8.5,3.609,12.068,12.068,0,0,1,3.524,8.711,12.072,12.072,0,0,1-3.523,8.712,11.5,11.5,0,0,1-8.5,3.61A11.5,11.5,0,0,1,12.012,21.032Z"
  fill="#fff"/>
</svg>
