<svg xmlns="http://www.w3.org/2000/svg" width="26.292" height="35.588" viewBox="0 0 26.292 35.588">
  <g id="tools-and-utensils" transform="translate(0.001 0)">
    <path id="Path_1127" data-name="Path 1127" d="M25.23,3.689h-7.52V1.061A1.061,1.061,0,0,0,16.649,0H9.641A1.061,1.061,0,0,0,8.58,1.061V3.689H1.061A1.061,1.061,0,0,0,0,4.75V9.569A1.061,1.061,0,0,0,1.061,10.63h.872v23.9a1.061,1.061,0,0,0,1.061,1.061H23.3a1.061,1.061,0,0,0,1.061-1.061V10.63h.872a1.061,1.061,0,0,0,1.061-1.061V4.75A1.061,1.061,0,0,0,25.23,3.689ZM10.7,2.122h4.885V3.674H10.7ZM2.122,5.812H24.169v2.7H2.122ZM22.236,33.465H4.055V10.63H22.236V33.465Zm0,0" fill="#484848"/>
    <path id="Path_1128" data-name="Path 1128" d="M249.96,211.2a1.061,1.061,0,0,0,1.061-1.061V195.147a1.061,1.061,0,1,0-2.123,0v14.992a1.061,1.061,0,0,0,1.061,1.061Zm0,0" transform="translate(-231.599 -180.596)" fill="#484848"/>
    <path id="Path_1129" data-name="Path 1129" d="M174.924,211.2a1.061,1.061,0,0,0,1.061-1.061V195.147a1.061,1.061,0,1,0-2.122,0v14.992a1.061,1.061,0,0,0,1.061,1.061Zm0,0" transform="translate(-161.779 -180.596)" fill="#484848"/>
    <path id="Path_1130" data-name="Path 1130" d="M99.886,211.2a1.061,1.061,0,0,0,1.061-1.061V195.147a1.061,1.061,0,1,0-2.122,0v14.992a1.061,1.061,0,0,0,1.061,1.061Zm0,0" transform="translate(-91.956 -180.596)" fill="#484848"/>
  </g>
</svg>
