<svg id="Group_1331" data-name="Group 1331" xmlns="http://www.w3.org/2000/svg" width="38.066" height="48.338" viewBox="0 0 38.066 48.338">
  <g id="Group_977" data-name="Group 977" transform="translate(0 0)">
    <path id="Subtraction_21" data-name="Subtraction 21" d="M34.5,48.338H3.567A3.571,3.571,0,0,1,1.052,47.3,3.517,3.517,0,0,1,0,44.81V3.528A3.517,3.517,0,0,1,1.052,1.036,3.57,3.57,0,0,1,3.567,0H26.226V9.023a3.077,3.077,0,0,0,3.089,3.061h8.752V44.81A3.518,3.518,0,0,1,37.014,47.3,3.571,3.571,0,0,1,34.5,48.338Zm2.333-38.011H29.311A1.31,1.31,0,0,1,28,9.023V1.3l8.836,9.025Z" transform="translate(0 0)" fill="#fcfcfc"/>
    <g id="Group_1102" data-name="Group 1102" transform="translate(9.124 16.62)">
      <path id="Path_1243" data-name="Path 1243" d="M10.035,0A10.035,10.035,0,1,1,0,10.035,10.035,10.035,0,0,1,10.035,0Z" fill="#fcfcfc"/>
      <g id="Group_1071" data-name="Group 1071" transform="translate(5.895 5.939)">
        <line id="Line_276" data-name="Line 276" y2="8.985" transform="translate(4.493)" fill="none" stroke="#fcfcfc" stroke-linecap="round" stroke-width="3"/>
        <line id="Line_277" data-name="Line 277" x2="8.577" transform="translate(0 4.493)" fill="none" stroke="#fcfcfc" stroke-linecap="round" stroke-width="3"/>
      </g>
    </g>
  </g>
</svg>
