<svg xmlns="http://www.w3.org/2000/svg" width="17.154" height="17.154" viewBox="0 0 17.154 17.154">
    <defs>
        <style>
            .prefix__cls-2{fill:none;stroke:#fff;stroke-linecap:round;stroke-linejoin:round;stroke-miterlimit:10;stroke-width:1.4px}
        </style>
    </defs>
    <g id="prefix__noun_edit_562275" transform="translate(.7 1.7)" style="opacity:.74">
        <g id="prefix__Group_1762" data-name="Group 1762" transform="translate(0 1)">
            <path id="prefix__Path_1313" d="M15.322 9.443v6.446a1.435 1.435 0 0 1-1.431 1.431H2.431A1.435 1.435 0 0 1 1 15.891V4.431A1.435 1.435 0 0 1 2.432 3h6.446" class="prefix__cls-2" data-name="Path 1313" transform="translate(-1 -3.568)"/>
            <path id="prefix__Path_1314" d="M6 13.173l3.368-.673a.718.718 0 0 0 .367-.2l8.439-8.439A3.258 3.258 0 0 0 15.309 1L6.87 9.439a.718.718 0 0 0-.2.367z" class="prefix__cls-2" data-name="Path 1314" transform="translate(-2.42 -3)"/>
        </g>
    </g>
</svg>
