<svg xmlns="http://www.w3.org/2000/svg" width="95.154" height="79.73" viewBox="0 0 95.154 79.73">
  <g id="Group_2380" data-name="Group 2380" transform="translate(-12 -18)">
    <path id="Union_17" data-name="Union 17" d="M10.941,79.726A11.458,11.458,0,0,1,6.014,78.72a9.547,9.547,0,0,1-5.3-5.886A12.661,12.661,0,0,1,0,68.412q.037-3.077.059-6.153c.012-12.038.049-19.586.072-32.9V12.243H.16q0-1.155.012-2.31C.207,3.926,3.732.3,9.529.155,13.072.063,16.616.069,20.162.074,23.584.08,27,.085,30.424,0c3.717-.087,6.334,1.677,8.6,4.392C40.172,5.771,41.307,7.159,42.5,8.5a10.129,10.129,0,0,0,8.051,3.59c4.562-.012,9.126.055,13.689.124l3.619.053H84.1a12.117,12.117,0,0,1,3.488.411,9.167,9.167,0,0,1,5.738,4.192,12.041,12.041,0,0,1,1.8,6.368c.014.411,0,.651,0,.651s-.038,23.4-.042,41.711q.028,1.343.061,2.688a11.506,11.506,0,0,1-1.054,5.169,10.169,10.169,0,0,1-9.6,6.261h-.564c-5.808-.155-11.619-.184-17.431-.171-6.2.016-12.408.075-18.609.076h-.46c-3.576,0-7.152-.021-10.727-.045-4-.024-8.006-.049-12.008-.042-4.346.011-8.693.058-13.03.186q-.244.007-.483.007Z" transform="translate(12.002 18.002)" fill="#2362c7" />
    <path id="Path_1532" data-name="Path 1532" d="M83.785,31.256,61.2,12.435a1.883,1.883,0,0,0-3.088,1.447V23.65C39.222,27.907,28,39.65,28,55.287a1.883,1.883,0,0,0,3.669.6C34.863,46.292,47.5,42.541,58.113,42.147v9.376A1.884,1.884,0,0,0,61.2,52.97L83.785,34.149a1.885,1.885,0,0,0,0-2.893Z" transform="translate(7.189 29.189)" fill="#fff" />
  </g>
</svg>
