<svg xmlns="http://www.w3.org/2000/svg" viewBox="0 0 34.255 34.152">
    <g id="prefix__noun_help_2216482" transform="translate(-10.906 -11.007)">
        <path id="prefix__Path_1374" d="M26.233 11.135a17.092 17.092 0 0 0-15.023 13.71 17.3 17.3 0 0 0 13.4 20.148 24.341 24.341 0 0 0 9.154-.657c6.307-2.453 10.161-6.964 11.3-13.709A19.9 19.9 0 0 0 43.4 20.508a16.805 16.805 0 0 0-17.167-9.373zM27.766 38.6a2.475 2.475 0 0 1 0-4.949 2.476 2.476 0 1 1 0 4.949zM33.2 27.166a19.555 19.555 0 0 1-1.883 1.445 3.446 3.446 0 0 0-1.533 2.978h-3.945a4.127 4.127 0 0 1 1.183-3.989 21.367 21.367 0 0 0 2.146-1.664 6.548 6.548 0 0 0 1.4-2.1 2.128 2.128 0 0 0-1.27-2.409 2.681 2.681 0 0 0-3.241.92 16.92 16.92 0 0 0-.745 1.971h-3.678a5.722 5.722 0 0 1 2.54-5.563 8.408 8.408 0 0 1 9.11.788 5.138 5.138 0 0 1-.084 7.623z" data-name="Path 1374" style="fill:#2975eb"/>
    </g>
</svg>
