<svg xmlns="http://www.w3.org/2000/svg" width="232" height="345.313" viewBox="0 0 232 345.313">
  <g id="Group_2537" data-name="Group 2537" transform="translate(-68 -128.687)">
    <g id="Group_2314" data-name="Group 2314" transform="translate(0 -65)">
      <g id="Group_2315" data-name="Group 2315" transform="translate(-86 -557.28)">
        <text id="Notarize_Documents" data-name="Notarize
Documents" transform="translate(313.818 870.86)" fill="#4ba9d9" font-size="23" font-family="Montserrat-Medium, Montserrat" font-weight="500">
          <tspan x="-49.059" y="0">Notarize</tspan>
          <tspan x="-68.735" y="28">Documents</tspan>
        </text>
      </g>
      <g id="Group_2325" data-name="Group 2325" transform="translate(16677.672 9514.428)">
        <path id="noun_Stamp_831862" d="M114.76,43.509a7.028,7.028,0,0,0,0,8.394,7.028,7.028,0,0,1-3.582,10.921,7.028,7.028,0,0,0-4.933,6.758,7.015,7.015,0,0,1-9.272,6.758A7.028,7.028,0,0,0,89,78.936a7.028,7.028,0,0,1-11.462,0,7.028,7.028,0,0,0-7.975-2.6,7.015,7.015,0,0,1-9.272-6.758,7.029,7.029,0,0,0-5-6.758A7.029,7.029,0,0,1,51.746,51.93a7.029,7.029,0,0,0,0-8.394A7.029,7.029,0,0,1,55.288,32.6a7.029,7.029,0,0,0,4.933-6.758,7.015,7.015,0,0,1,9.272-6.758,7.029,7.029,0,0,0,7.975-2.6,7.029,7.029,0,0,1,11.462,0,7.029,7.029,0,0,0,7.975,2.6,7.015,7.015,0,0,1,9.272,6.758A7.028,7.028,0,0,0,111.11,32.6a7.029,7.029,0,0,1,3.649,10.908Zm-21.18-3.8a4.136,4.136,0,0,0-5.853,0L80.536,46.9,78.82,45.185a4.138,4.138,0,1,0-5.853,5.853l1.717,1.717,2.933,2.933a4.15,4.15,0,0,0,5.853,0l2.906-2.933,7.191-7.191a4.136,4.136,0,0,0,.014-5.853Z" transform="translate(-16657 -9242.131)" fill="#4ba9d9" />
        <circle id="Ellipse_675" data-name="Ellipse 675" cx="20.5" cy="20.5" r="20.5" transform="translate(-16594.672 -9216.428)" fill="#4ba9d9" />
        <g id="noun_Stamp_1471848_1_" data-name="noun_Stamp_1471848 (1)" transform="translate(-16587.717 -9213.25)">
          <path id="Path_1829" data-name="Path 1829" d="M36.61,33.768V27.835a6.578,6.578,0,1,0-5.311,0v5.693a2.155,2.155,0,0,1-1.627,2.105L23.118,37.26A3.852,3.852,0,0,0,20.2,41.04v2.679H48.571V41.088a3.885,3.885,0,0,0-3.014-3.78l-7.511-1.722A1.844,1.844,0,0,1,36.61,33.768Z" transform="translate(-20.2 -15.209)" fill="#fff" />
          <rect id="Rectangle_1282" data-name="Rectangle 1282" width="26.266" height="2.296" transform="translate(1.053 30.95)" fill="#fff" />
        </g>
      </g>
    </g>
    <g id="Group_2324" data-name="Group 2324" transform="translate(0 -78)">
      <g id="Group_2309" data-name="Group 2309" transform="translate(-96 -635.28)">
        <text id="Upload_Documents" data-name="Upload
Documents" transform="translate(313.818 870.86)" fill="#4ba9d9" font-size="23" font-family="Montserrat-Medium, Montserrat" font-weight="500">
          <tspan x="-45.241" y="0">Upload </tspan>
          <tspan x="-68.735" y="28">Documents</tspan>
        </text>
      </g>
      <g id="Group_2323" data-name="Group 2323" transform="translate(0 18)">
        <g id="Group_2318" data-name="Group 2318" transform="translate(75.928 188.687)">
          <path id="Subtraction_21" data-name="Subtraction 21" d="M49.47,69.313H5.114a5.121,5.121,0,0,1-3.606-1.486A5.043,5.043,0,0,1,0,64.254V5.059A5.043,5.043,0,0,1,1.509,1.486,5.119,5.119,0,0,1,5.114,0H37.606V12.939a4.412,4.412,0,0,0,4.429,4.39H54.584V64.254a5.044,5.044,0,0,1-1.509,3.573A5.12,5.12,0,0,1,49.47,69.313Zm3.346-54.506H42.03a1.878,1.878,0,0,1-1.886-1.869V1.866l12.67,12.941Z" transform="translate(0 0)" fill="#4ba9d9" />
        </g>
        <g id="Group_2322" data-name="Group 2322">
          <path id="Path_1835" data-name="Path 1835" d="M113.917,401.934H90.589a1.417,1.417,0,0,0,0,2.835h23.342a1.417,1.417,0,1,0-.014-2.835Zm0,0" transform="translate(-0.01 -163.873)" fill="#fff" stroke="#fff" stroke-width="0.3" />
          <path id="Path_1836" data-name="Path 1836" d="M120.859,181.592l5.839-6.279V190.79a1.417,1.417,0,0,0,2.835,0V175.314l5.839,6.279a1.414,1.414,0,0,0,2.069-1.927l-8.305-8.914a1.407,1.407,0,0,0-2.069,0l-8.305,8.914a1.412,1.412,0,0,0,.071,2A1.446,1.446,0,0,0,120.859,181.592Zm0,0" transform="translate(-25.873 41.219)" fill="#fff" stroke="#fff" stroke-width="0.3" />
        </g>
      </g>
    </g>
    <g id="Group_2498" data-name="Group 2498" transform="translate(0 105)">
      <g id="Group_2309-2" data-name="Group 2309" transform="translate(-96 -635.28)">
        <text id="View_Documents_" data-name="View
Documents*" transform="translate(313.818 870.86)" fill="#4ba9d9" font-size="23" font-family="Montserrat-Medium, Montserrat" font-weight="500">
          <tspan x="-31.59" y="0">View </tspan>
          <tspan x="-73.335" y="28">Documents*</tspan>
        </text>
      </g>
      <g id="Group_2323-2" data-name="Group 2323" transform="translate(0 18)">
        <g id="Group_2318-2" data-name="Group 2318" transform="translate(75.928 188.687)">
          <path id="Subtraction_21-2" data-name="Subtraction 21" d="M49.47,69.313H5.114a5.121,5.121,0,0,1-3.606-1.486A5.043,5.043,0,0,1,0,64.254V5.059A5.043,5.043,0,0,1,1.509,1.486,5.119,5.119,0,0,1,5.114,0H37.606V12.939a4.412,4.412,0,0,0,4.429,4.39H54.584V64.254a5.044,5.044,0,0,1-1.509,3.573A5.12,5.12,0,0,1,49.47,69.313Zm3.346-54.506H42.03a1.878,1.878,0,0,1-1.886-1.869V1.866l12.67,12.941Z" transform="translate(0 0)" fill="#4ba9d9" />
        </g>
        <g id="noun_Eye_2501659" transform="translate(85.703 214.342)">
          <path id="Path_1917" data-name="Path 1917" d="M.4,10.482C9.953-3.585,26.01-3.452,35.565,10.615a1.8,1.8,0,0,1,0,2.256C26.01,26.937,9.953,26.8.4,12.738A1.8,1.8,0,0,1,.4,10.482Zm17.65-7.564a8.723,8.723,0,0,1,8.626,8.758,8.692,8.692,0,0,1-17.384,0A8.75,8.75,0,0,1,18.048,2.918Z" transform="translate(0 0)" fill="#fff" fill-rule="evenodd" />
        </g>
      </g>
      <g id="Group_2511" data-name="Group 2511" transform="translate(0 18)">
        <g id="Group_2318-3" data-name="Group 2318" transform="translate(75.928 188.687)">
          <path id="Subtraction_21-3" data-name="Subtraction 21" d="M49.47,69.313H5.114a5.121,5.121,0,0,1-3.606-1.486A5.043,5.043,0,0,1,0,64.254V5.059A5.043,5.043,0,0,1,1.509,1.486,5.119,5.119,0,0,1,5.114,0H37.606V12.939a4.412,4.412,0,0,0,4.429,4.39H54.584V64.254a5.044,5.044,0,0,1-1.509,3.573A5.12,5.12,0,0,1,49.47,69.313Zm3.346-54.506H42.03a1.878,1.878,0,0,1-1.886-1.869V1.866l12.67,12.941Z" transform="translate(0 0)" fill="#4ba9d9" />
        </g>
        <g id="noun_Eye_2501659-2" data-name="noun_Eye_2501659" transform="translate(85.703 214.342)">
          <path id="Path_1917-2" data-name="Path 1917" d="M.4,10.482C9.953-3.585,26.01-3.452,35.565,10.615a1.8,1.8,0,0,1,0,2.256C26.01,26.937,9.953,26.8.4,12.738A1.8,1.8,0,0,1,.4,10.482Zm17.65-7.564a8.723,8.723,0,0,1,8.626,8.758,8.692,8.692,0,0,1-17.384,0A8.75,8.75,0,0,1,18.048,2.918Z" transform="translate(0 0)" fill="#fff" fill-rule="evenodd" />
        </g>
      </g>
    </g>
    <text id="_Viewing_Owner_s_document_requires_you_to_use_a_private_cryptographic_key_to_register_and_login_to_your_account" data-name="*Viewing Owner's document
requires you to use a private
cryptographic key to register
and login to your account" transform="translate(184 413)" fill="#707070" font-size="16" font-family="Montserrat-Regular, Montserrat">
      <tspan x="-115.072" y="0">*Viewing Owners document</tspan>
      <tspan x="-114.472" y="19">requires you to use a private </tspan>
      <tspan x="-115.296" y="38">cryptographic key to register</tspan>
      <tspan x="-102.784" y="57">and login to your account</tspan>
    </text>
  </g>
</svg>
