<svg xmlns="http://www.w3.org/2000/svg" width="15.119" height="15.119" viewBox="0 0 15.119 15.119">
  <path id="noun_Information_189702" d="M12.559,5a7.56,7.56,0,1,0,7.56,7.559A7.559,7.559,0,0,0,12.559,5Zm0,2.787a1.178,1.178,0,1,1-1.178,1.178A1.179,1.179,0,0,1,12.559,7.787Zm0,3.142a1.13,1.13,0,0,1,.777.311,1.031,1.031,0,0,1,.313.747v4.288a1.031,1.031,0,0,1-.319.752,1.125,1.125,0,0,1-1.553-.011,1.032,1.032,0,0,1-.309-.741V11.987a1.032,1.032,0,0,1,.314-.747,1.128,1.128,0,0,1,.776-.311Z" transform="translate(-5 -5)" fill="#76b3ef"/>
</svg>
