<svg xmlns="http://www.w3.org/2000/svg" width="215" height="40" viewBox="0 0 215 40">
  <g id="Group_2531" data-name="Group 2531" transform="translate(-75 -433)">
    <g id="Group_2528" data-name="Group 2528" transform="translate(-146 296)">
      <g id="Ellipse_676" data-name="Ellipse 676" transform="translate(225 147)" fill="#fff" stroke="#707070" stroke-width="1">
        <circle cx="10" cy="10" r="10" stroke="none"/>
        <circle cx="10" cy="10" r="9.5" fill="none"/>
      </g>
      <path id="noun_Warning_223358" d="M26.352,26.352a13.9,13.9,0,1,0-19.657,0A13.9,13.9,0,0,0,26.352,26.352ZM14.969,9.806a1.7,1.7,0,0,1,3.257.851c-.029.557-.059,1.086-.088,1.643-.117,2.054-.235,4.107-.323,6.132a1.262,1.262,0,0,1-2.523-.059c-.029-.411-.029-.821-.059-1.232-.088-1.32-.147-2.64-.235-3.99-.059-.851-.088-1.7-.147-2.552A1.541,1.541,0,0,1,14.969,9.806Zm1.555,11.031a1.748,1.748,0,0,1,1.731,1.7,1.7,1.7,0,0,1-3.4.029A1.685,1.685,0,0,1,16.524,20.837Z" transform="translate(218.375 140.375)" fill="#d95868"/>
    </g>
    <text id="Make_sure_to_save_your_key_somewhere_safe" data-name="Make sure to save your key somewhere safe" transform="translate(103 433)" fill="#d95868" font-size="15" font-family="Montserrat-Regular, Montserrat"><tspan x="8.202" y="15">Make sure to save your </tspan><tspan x="17.15" y="34">key somewhere safe</tspan></text>
  </g>
</svg>
