<svg xmlns="http://www.w3.org/2000/svg" width="32.703" height="34" viewBox="0 0 32.703 34">
  <path id="noun_loading_391059" d="M44.958,24.838a10.642,10.642,0,0,0-.353-1.1c-.132-.4-.309-.706-.441-1.014a5.027,5.027,0,0,0-.441-.838c.132.22.22.485.353.75.088.309.265.661.353,1.014a10.642,10.642,0,0,0,.353,1.1,15.614,15.614,0,0,1-1.5,11.2,14.47,14.47,0,0,1-4.63,4.939,10.271,10.271,0,0,1-1.5.882c-.22.088-.529.265-.794.353a6.786,6.786,0,0,0-.838.353,11.054,11.054,0,0,1-3.572.794l-.485.044-.485.044h-.926a8.515,8.515,0,0,1-1.852-.22c-.617-.044-1.235-.265-1.808-.353a15.545,15.545,0,0,1-1.72-.661c-.529-.265-1.058-.529-1.632-.838a4.369,4.369,0,0,1-.75-.485l-.353-.265a1.061,1.061,0,0,1-.353-.265l-.353-.265-.176-.176-.088-.088-.044-.044-.044-.044h0l-.661-.661a8.242,8.242,0,0,1-1.191-1.367,5.535,5.535,0,0,1-.485-.75l-.485-.75-.4-.794c-.088-.22-.265-.529-.353-.794a10.077,10.077,0,0,1-.529-1.632,4.652,4.652,0,0,1-.22-.838l-.132-.794a9.728,9.728,0,0,1-.176-1.632,10.09,10.09,0,0,1,.044-1.632c.088-.529.132-1.058.265-1.543.044-.265.132-.485.176-.75l.044-.353.132-.353a14.29,14.29,0,0,1,2.866-4.851c.353-.353.617-.661.926-.926a4.807,4.807,0,0,1,.97-.794,11.562,11.562,0,0,1,1.9-1.235,13.4,13.4,0,0,1,3.4-1.235,8.214,8.214,0,0,1,2.293-.265,2.815,2.815,0,0,1,.617,0h.22a2.2,2.2,0,0,0,0-4.41h-.132a.64.64,0,0,1-.265.044,5.984,5.984,0,0,0-.794.044,15.135,15.135,0,0,0-3.043.529A17.36,17.36,0,0,0,21.5,13.725,15.691,15.691,0,0,0,19.116,15.4a8.5,8.5,0,0,0-1.1,1.058l-.265.265c-.088.088-.22.176-.265.309a7.884,7.884,0,0,0-.573.617A17.905,17.905,0,0,0,13.6,23.956l-.132.441-.088.485c-.044.309-.132.617-.176.926a14.377,14.377,0,0,0-.22,1.984,14.911,14.911,0,0,0,.044,1.984,17.072,17.072,0,0,0,.265,2.029c.044.309.132.661.176,1.014.088.353.22.661.309,1.014a12.663,12.663,0,0,0,.75,1.94,9.332,9.332,0,0,0,.485.926c.176.353.353.617.529.926.22.309.4.617.617.882s.4.573.661.838a9.913,9.913,0,0,0,1.455,1.543l.75.706.044.044h0l.044.044.044.044h.088l.22.176.441.309c.176.088.265.22.441.309l.485.265c.353.176.617.4.926.529a15.387,15.387,0,0,0,1.94.882,18.113,18.113,0,0,0,2.029.661,15.633,15.633,0,0,0,2.073.353,16.3,16.3,0,0,0,2.073.088c.353,0,.706-.044,1.058-.044l.529-.044.485-.044a16.628,16.628,0,0,0,3.925-1.058c.353-.132.617-.265.926-.4a8.745,8.745,0,0,0,.882-.485,15.056,15.056,0,0,0,1.632-1.1c.22-.176.441-.4.706-.573l.353-.265.088-.088.044-.044h0V41.2l.044-.044.176-.176.661-.661.353-.353.309-.353a15.809,15.809,0,0,0,1.1-1.455c.176-.265.309-.485.485-.75.132-.309.265-.529.4-.794a15.887,15.887,0,0,0,.926-11.774Z" transform="translate(-12.975 -11.3)" fill="#888" />
</svg>
