<svg xmlns="http://www.w3.org/2000/svg" width="218.801" height="129.139" viewBox="0 0 218.801 129.139">
  <g id="Group_2387" data-name="Group 2387" transform="translate(-749.557 -361.439)">
    <g id="Group_2326" data-name="Group 2326" transform="translate(928.329 363.739)">
      <g id="Group_2126" data-name="Group 2126" transform="translate(0)">
        <path id="Path_1517" data-name="Path 1517" d="M-356.773,22.1c-20.015,0-20.015,4.992-20.015,4.992v16.6a24.945,24.945,0,0,0,12.747,21.75l7.268,4.081,7.268-4.118a24.947,24.947,0,0,0,12.747-21.75V27.088S-338.01,22.1-356.773,22.1Zm-.3,38.917a2.133,2.133,0,0,1-2.133-2.133,2.133,2.133,0,0,1,2.133-2.133,2.133,2.133,0,0,1,2.133,2.133A2.133,2.133,0,0,1-357.078,61.013Zm6.481-14.6c-2.409,1.538-3.99,2.652-3.99,4.19a1.879,1.879,0,0,1-1.882,1.876,1.879,1.879,0,0,1-1.882-1.876c0-3.716,3.225-5.729,5.734-7.356,1.292-.813,3.049-1.939,3.049-2.652,0-4.6-.515-8.131-6.9-8.131-6.713,0-6.9,5.053-6.9,5.629a1.879,1.879,0,0,1-1.882,1.876,1.879,1.879,0,0,1-1.882-1.876c0-3.24,2.234-9.381,10.665-9.381,10.665,0,10.665,8.331,10.665,11.884C-345.8,43.374-348.188,44.875-350.6,46.414Z" transform="translate(376.788 -22.096)" fill="#2362c7" fill-rule="evenodd" />
      </g>
    </g>
    <g id="Group_2376" data-name="Group 2376" transform="translate(934.889 431.331)">
      <g id="noun_Phone_1375627_1_" data-name="noun_Phone_1375627 (1)">
        <path id="Path_1909" data-name="Path 1909" d="M30.671,958.363A3.59,3.59,0,0,0,27,961.884V1006.5a3.59,3.59,0,0,0,3.671,3.521H51.477a3.59,3.59,0,0,0,3.671-3.521V961.884a3.59,3.59,0,0,0-3.671-3.523H30.671ZM37.4,960.7h7.336a.587.587,0,0,1,0,1.174H37.4a.587.587,0,0,1,0-1.174Zm-7.961,3.523H52.7V1001.8H29.441Zm11.626,39.335a2.351,2.351,0,1,1-2.447,2.341,2.4,2.4,0,0,1,2.454-2.338Z" transform="translate(-27 -958.361)" fill="#2362c7" stroke="#fff" stroke-width="0.2" />
      </g>
      <path id="Rectangle_1288" data-name="Rectangle 1288" d="M0,0H21.853V35.9H0Z" transform="translate(3.121 6.642)" fill="#2362c7" opacity="0.5" />
    </g>
    <g id="Group_1773" data-name="Group 1773" transform="translate(749.557 361.439)">
      <path id="Union_69" data-name="Union 69" d="M8.6,51.96a8.354,8.354,0,0,1-6.2-2.409A8.934,8.934,0,0,1,0,43.023c0-1.043.033-2.075.1-3.068a32.651,32.651,0,0,1,.395-3.283,27.4,27.4,0,0,1,.758-3.3,16.782,16.782,0,0,1,1.274-3.078,11.53,11.53,0,0,1,1.919-2.667A8.4,8.4,0,0,1,7.2,25.779a9,9,0,0,1,3.521-.681,3.451,3.451,0,0,1,1.908.863c.581.4,1.251.863,1.99,1.366A11.049,11.049,0,0,0,17.2,28.536a9.417,9.417,0,0,0,6.295,0,11.074,11.074,0,0,0,2.572-1.208c.748-.509,1.417-.968,1.989-1.366A3.462,3.462,0,0,1,29.96,25.1a9.028,9.028,0,0,1,3.523.678,8.4,8.4,0,0,1,2.758,1.847,11.571,11.571,0,0,1,1.921,2.667,16.872,16.872,0,0,1,1.274,3.078,27.406,27.406,0,0,1,.758,3.3c.195,1.165.329,2.27.395,3.282.065.989.1,2.023.1,3.07a8.932,8.932,0,0,1-2.405,6.528,8.358,8.358,0,0,1-6.2,2.409Zm3.128-30.6a12.525,12.525,0,0,1-3.44-8.849,12.524,12.524,0,0,1,3.44-8.848,11.242,11.242,0,0,1,16.611,0,12.522,12.522,0,0,1,3.442,8.848,12.521,12.521,0,0,1-3.442,8.849,11.242,11.242,0,0,1-16.611,0Z" transform="translate(0 0)" fill="#2362c7" />
    </g>
    <g id="Group_2328" data-name="Group 2328" transform="translate(814.149 367.881)">
      <path id="Path_1510" data-name="Path 1510" d="M91.039,43.268H89.926V37.892A9,9,0,0,0,80.934,28.9H77.69A9,9,0,0,0,68.7,37.892v5.376H67.586A3.957,3.957,0,0,0,63.6,47.254V63.94a3.957,3.957,0,0,0,3.986,3.986H91.039a3.957,3.957,0,0,0,3.986-3.986V47.254A4.016,4.016,0,0,0,91.039,43.268ZM81.954,60.881a.65.65,0,0,1-.649.834H77.319a.683.683,0,0,1-.649-.834l1.3-5.191a3.07,3.07,0,0,1-1.854-2.874,3.152,3.152,0,1,1,6.3,0,3.07,3.07,0,0,1-1.854,2.874Zm2.6-17.613H74.075V37.892a3.62,3.62,0,0,1,3.615-3.615h3.244a3.62,3.62,0,0,1,3.615,3.615v5.376Z" transform="translate(-6.962 -28.9)" fill="#2362c7" />
      <path id="Path_1511" data-name="Path 1511" d="M21.923,48.752a1.35,1.35,0,0,0-1.854-.463l-2.317,1.3V46.9a1.3,1.3,0,0,0-2.6,0v2.688l-2.317-1.3a1.351,1.351,0,1,0-1.39,2.317l2.317,1.3-2.317,1.3a1.35,1.35,0,0,0-.463,1.854A1.21,1.21,0,0,0,12.1,55.7a1.719,1.719,0,0,0,.649-.185l2.317-1.3v2.688a1.3,1.3,0,0,0,2.6,0V54.221l2.317,1.3a1.719,1.719,0,0,0,.649.185,1.286,1.286,0,0,0,1.112-.649,1.35,1.35,0,0,0-.463-1.854l-2.317-1.3,2.317-1.3A1.383,1.383,0,0,0,21.923,48.752Z" transform="translate(-3.106 -30.119)" fill="#2362c7" />
      <path id="Path_1512" data-name="Path 1512" d="M39.423,48.752a1.35,1.35,0,0,0-1.854-.463l-2.317,1.3V46.9a1.3,1.3,0,0,0-2.6,0v2.688l-2.317-1.3a1.351,1.351,0,1,0-1.39,2.317l2.317,1.3-2.317,1.3a1.35,1.35,0,0,0-.463,1.854A1.21,1.21,0,0,0,29.6,55.7a1.718,1.718,0,0,0,.649-.185l2.317-1.3v2.688a1.3,1.3,0,0,0,2.6,0V54.221l2.317,1.3a1.719,1.719,0,0,0,.649.185,1.286,1.286,0,0,0,1.112-.649,1.35,1.35,0,0,0-.464-1.854l-2.317-1.3,2.317-1.3A1.383,1.383,0,0,0,39.423,48.752Z" transform="translate(-4.384 -30.119)" fill="#2362c7" />
      <path id="Path_1513" data-name="Path 1513" d="M56.923,48.752a1.35,1.35,0,0,0-1.854-.463l-2.317,1.3V46.9a1.3,1.3,0,0,0-2.6,0v2.688l-2.317-1.3a1.351,1.351,0,1,0-1.39,2.317l2.317,1.3-2.317,1.3a1.35,1.35,0,0,0-.463,1.854A1.21,1.21,0,0,0,47.1,55.7a1.719,1.719,0,0,0,.649-.185l2.317-1.3v2.688a1.3,1.3,0,0,0,2.6,0V54.221l2.317,1.3a1.718,1.718,0,0,0,.649.185,1.286,1.286,0,0,0,1.112-.649,1.35,1.35,0,0,0-.463-1.854l-2.317-1.3,2.317-1.3A1.383,1.383,0,0,0,56.923,48.752Z" transform="translate(-5.662 -30.119)" fill="#2362c7" />
      <path id="Path_1514" data-name="Path 1514" d="M60.158,39.9a1.267,1.267,0,0,0-1.3-1.3H9.823A7.339,7.339,0,0,0,2.5,45.923V56.769a7.339,7.339,0,0,0,7.323,7.323H53.762a1.3,1.3,0,1,0,0-2.6H9.823A4.747,4.747,0,0,1,5.1,56.769V45.923A4.747,4.747,0,0,1,9.823,41.2H58.86A1.216,1.216,0,0,0,60.158,39.9Z" transform="translate(-2.5 -29.608)" fill="#2362c7" />
    </g>
    <path id="Path_1519" data-name="Path 1519" d="M-511.281-77.879A2.718,2.718,0,0,0-514-75.164V-62.2a1.33,1.33,0,0,1-1.33,1.33,1.33,1.33,0,0,1-1.33-1.33V-82.1a2.718,2.718,0,0,0-2.715-2.715,2.71,2.71,0,0,0-2.683,2.365v18.965a1.33,1.33,0,0,1-1.33,1.33,1.33,1.33,0,0,1-1.33-1.33V-81.8a1.343,1.343,0,0,1-.035-.3v-2.1a2.713,2.713,0,0,0-.8-1.923,2.707,2.707,0,0,0-1.919-.792,2.718,2.718,0,0,0-2.715,2.715v20.716a1.33,1.33,0,0,1-1.33,1.33,1.33,1.33,0,0,1-1.33-1.33v-16.79s0,0,0-.007a2.694,2.694,0,0,0-.794-1.918,2.7,2.7,0,0,0-1.919-.8,2.722,2.722,0,0,0-2.719,2.719v13.674a5.338,5.338,0,0,1,.991,3.087V-56.4a1.586,1.586,0,0,0,1.172,1.515,14.845,14.845,0,0,1,6.4,3.756,15.246,15.246,0,0,1,4.2,8.2,1.33,1.33,0,0,1-1.093,1.53,1.326,1.326,0,0,1-.221.019,1.33,1.33,0,0,1-1.31-1.111,12.566,12.566,0,0,0-3.451-6.757,12.219,12.219,0,0,0-5.27-3.088,4.225,4.225,0,0,1-3.086-4.067v-7.124a2.648,2.648,0,0,0-.665-1.76l-.041-.047c-.709-.81-.823-.913-1.428-.913h-2.871l.006,15.98c0,10.35,7,17.861,16.637,17.861h2.144a17.675,17.675,0,0,0,12.448-5.042,16.861,16.861,0,0,0,5.142-12.139V-75.164a2.688,2.688,0,0,0-.8-1.918A2.684,2.684,0,0,0-511.281-77.879Z" transform="translate(1299.172 515.391)" fill="#2362c7" />
    <path id="Path_1520" data-name="Path 1520" d="M15.92,49.289a15.915,15.915,0,1,1,6.447-30.47L40.9.286A.976.976,0,0,1,41.6,0a.369.369,0,0,1,.108.01l6,.71a.994.994,0,0,1,.858.867l.71,5.993A.958.958,0,0,1,49,8.389l-3.884,3.884a.976.976,0,0,1-1.4,0l-1.006-1.006-2.267,2.277,1.006,1.006a.976.976,0,0,1,.286.7.954.954,0,0,1-.286.69l-2.938,2.938a.982.982,0,0,1-1.39,0l-1.006-1.006-2.277,2.267,1.006,1.006a.985.985,0,0,1,.3.7,1,1,0,0,1-.3.7L30.47,26.921a15.724,15.724,0,0,1,1.36,6.447,15.776,15.776,0,0,1-4.663,11.257A15.8,15.8,0,0,1,15.92,49.289Zm1.686-17.606a4.875,4.875,0,0,0-8.32,3.45,4.875,4.875,0,0,0,9.749,0A4.88,4.88,0,0,0,17.606,31.683Z" transform="translate(858.671 420.874) rotate(45)" fill="#2362c7" />
  </g>
</svg>
