<svg xmlns="http://www.w3.org/2000/svg" width="32.753" height="42.017" viewBox="0 0 32.753 42.017">
  <g id="noun_Login_688193_1_" data-name="noun_Login_688193 (1)" transform="translate(0)">
    <g id="Group_2774" data-name="Group 2774">
      <path id="Path_1921" data-name="Path 1921" d="M85.489,13.591H82.6V3.118H63.869c2.426,1.416,4.365,2.65,6.4,3.693A2.9,2.9,0,0,1,71.982,9.8c-.058,6.475-.025,12.951-.025,19.427v2.527H82.518V23.675h2.965c0,3.255.047,6.442-.023,9.626-.028,1.282-.991,1.585-2.107,1.579-3.036-.017-6.073-.007-9.114-.008h-2.29c0,1.815.049,3.488-.013,5.155-.071,1.934-1.016,2.482-2.678,1.54-3.894-2.2-7.788-4.408-11.61-6.734a2.858,2.858,0,0,1-1.154-2.066c-.074-10.247-.039-20.5-.064-30.744C56.426.555,57.087,0,58.463,0Q70.924.023,83.386.007C84.5.007,85.454.3,85.47,1.6,85.522,5.543,85.489,9.488,85.489,13.591Z" transform="translate(-56.43)" fill="#2362c7"/>
      <path id="Path_1922" data-name="Path 1922" d="M267.45,165.792c2.052,0,3.9.014,5.744,0,1.543-.016,2.425-.663,2.308-1.75-.145-1.351-1.095-1.675-2.274-1.663-1.851.02-3.7,0-5.778,0,0-.926.027-1.768-.007-2.609-.05-1.236-.516-1.54-1.461-.873-2.052,1.452-4.064,2.97-6.084,4.472-.636.473-.649.993,0,1.471,2.066,1.525,4.121,3.064,6.216,4.548.868.615,1.3.158,1.329-.786C267.472,167.745,267.45,166.884,267.45,165.792Z" transform="translate(-242.76 -145.542)" fill="#2362c7"/>
    </g>
  </g>
</svg>
