<svg xmlns="http://www.w3.org/2000/svg" width="33.029" height="28.549" viewBox="0 0 33.029 28.549">
  <g id="noun_logout_1262646" transform="translate(-11 -14)">
    <path id="Path_1525" data-name="Path 1525" d="M65.639,33.057a1.615,1.615,0,0,0-.079,2.26l2.815,3.053H61v3.172h7.375L65.56,44.6a1.607,1.607,0,0,0,1.15,2.7,1.484,1.484,0,0,0,1.15-.515l6.344-6.86-6.344-6.78A1.569,1.569,0,0,0,65.639,33.057Z" transform="translate(-30.174 -11.246)" fill="#484848" />
    <path id="Path_1526" data-name="Path 1526" d="M20.913,28.671A1.591,1.591,0,0,1,22.5,27.085h8.327V17.291A3.283,3.283,0,0,0,27.534,14H14.291A3.283,3.283,0,0,0,11,17.291V39.258a3.283,3.283,0,0,0,3.291,3.291H27.534a3.283,3.283,0,0,0,3.291-3.291v-9H22.5A1.591,1.591,0,0,1,20.913,28.671Z" transform="translate(0 0)" fill="#484848" />
  </g>
</svg>
