<svg xmlns="http://www.w3.org/2000/svg" viewBox="0 0 173.523 56.311">
    <defs>
        <filter id="prefix__Path_670" width="23.783" height="25.865" x="149.74" y="30.314" filterUnits="userSpaceOnUse">
            <feOffset dy="3"/>
            <feGaussianBlur result="blur" stdDeviation="3"/>
            <feFlood flood-color="#131313" flood-opacity=".161"/>
            <feComposite in2="blur" operator="in"/>
            <feComposite in="SourceGraphic"/>
        </filter>
        <filter id="prefix__Path_671" width="23.552" height="25.963" x="112.514" y="30.32" filterUnits="userSpaceOnUse">
            <feOffset dy="3"/>
            <feGaussianBlur result="blur-2" stdDeviation="3"/>
            <feFlood flood-color="#131313" flood-opacity=".161"/>
            <feComposite in2="blur-2" operator="in"/>
            <feComposite in="SourceGraphic"/>
        </filter>
        <filter id="prefix__Path_672" width="24.48" height="25.884" x="101.274" y="30.298" filterUnits="userSpaceOnUse">
            <feOffset dy="3"/>
            <feGaussianBlur result="blur-3" stdDeviation="3"/>
            <feFlood flood-color="#131313" flood-opacity=".161"/>
            <feComposite in2="blur-3" operator="in"/>
            <feComposite in="SourceGraphic"/>
        </filter>
        <filter id="prefix__Path_673" width="22.754" height="26.041" x="123.277" y="30.271" filterUnits="userSpaceOnUse">
            <feOffset dy="3"/>
            <feGaussianBlur result="blur-4" stdDeviation="3"/>
            <feFlood flood-color="#131313" flood-opacity=".161"/>
            <feComposite in2="blur-4" operator="in"/>
            <feComposite in="SourceGraphic"/>
        </filter>
        <filter id="prefix__Path_674" width="23.608" height="25.848" x="132.655" y="30.32" filterUnits="userSpaceOnUse">
            <feOffset dy="3"/>
            <feGaussianBlur result="blur-5" stdDeviation="3"/>
            <feFlood flood-color="#131313" flood-opacity=".161"/>
            <feComposite in2="blur-5" operator="in"/>
            <feComposite in="SourceGraphic"/>
        </filter>
        <filter id="prefix__Path_675" width="18.99" height="25.847" x="143.145" y="30.322" filterUnits="userSpaceOnUse">
            <feOffset dy="3"/>
            <feGaussianBlur result="blur-6" stdDeviation="3"/>
            <feFlood flood-color="#131313" flood-opacity=".161"/>
            <feComposite in2="blur-6" operator="in"/>
            <feComposite in="SourceGraphic"/>
        </filter>
        <style>
            .prefix__cls-1{fill:#2975eb}
        </style>
    </defs>
    <g id="prefix__Group_986" data-name="Group 986">
        <path id="prefix__Union_17" d="M6.019 44.231a6.259 6.259 0 0 1-2.711-.558 5.281 5.281 0 0 1-2.916-3.266A7.078 7.078 0 0 1 0 37.954q.02-1.707.033-3.414c.007-6.679.027-10.866.04-18.255V6.791h.014q0-.641.007-1.282C.113 2.177 2.052.167 5.242.085 7.191.034 9.141.037 11.092.04c1.883 0 3.762.006 5.646-.041a5.728 5.728 0 0 1 4.731 2.437c.632.764 1.256 1.534 1.912 2.278a5.553 5.553 0 0 0 4.43 1.992c2.51-.007 5.021.031 7.532.069l1.991.029h8.936a6.614 6.614 0 0 1 1.919.228 5.046 5.046 0 0 1 3.157 2.326 6.722 6.722 0 0 1 .991 3.533c.008.228 0 .361 0 .361s-.021 12.985-.023 23.142q.015.745.033 1.491a6.429 6.429 0 0 1-.58 2.868 5.593 5.593 0 0 1-5.283 3.474h-.31c-3.2-.086-6.393-.1-9.59-.095-3.412.009-6.827.042-10.238.042h-.253c-1.967 0-3.935-.012-5.9-.025-2.2-.013-4.4-.027-6.606-.023-2.391.006-4.782.032-7.169.1h-.266z" class="prefix__cls-1" data-name="Union 17" transform="translate(.002 .002)"/>
        <path id="prefix__Path_664" d="M248.682 170.266l-1.047 3.71q-1.657 5.908-3.3 11.822c-.13.47-.322.683-.83.658-.9-.037-1.8-.04-2.693 0a.68.68 0 0 1-.532-.132.691.691 0 0 1-.265-.484q-1.309-5-2.642-9.994c-.475-1.786-.957-3.57-1.594-5.374a5.157 5.157 0 0 0-.151.615c-.47 3.938-.929 7.876-1.4 11.813-.051.423.118.539.491.532.47-.01.942.013 1.412-.007.435-.017.63.146.612.6-.023.6-.015 1.207 0 1.811.008.365-.107.568-.507.567q-3.464-.009-6.928 0c-.341 0-.514-.132-.507-.5.012-.647.013-1.294 0-1.941-.009-.391.164-.556.539-.534h.064c1.365-.058 1.36-.058 1.518-1.415.494-4.238.982-8.476 1.5-12.714.065-.52-.1-.629-.559-.658-1.28-.094-1.28-.109-1.28-1.44 0-1.584 0-1.584 1.541-1.584h4.676c1 0 1.138.092 1.392 1.044.935 3.517 1.858 7.037 2.795 10.553.333 1.249.686 2.491 1.038 3.735q.14.385.317.754c.376-1.308.707-2.416 1.014-3.531q1.549-5.672 3.083-11.346c.294-1.081.462-1.2 1.554-1.21 1.775-.012 3.551-.015 5.323-.057.541-.013.725.183.7.712-.03.585-.02 1.165 0 1.746.012.414-.171.558-.569.593-1.325.119-1.346.134-1.205 1.453.457 4.286.935 8.57 1.39 12.856.041.388.2.541.564.511h.064c1.568.056 1.575.057 1.567 1.63s.185 1.374-1.358 1.382c-1.946.009-3.892-.014-5.837.013-.554.008-.78-.161-.742-.737s.018-1.165.007-1.746c-.008-.381.15-.556.534-.544s.771-.02 1.154.008c.516.037.672-.161.613-.681-.222-1.949-.411-3.9-.609-5.853-.2-1.929-.391-3.86-.593-5.789-.03-.285-.1-.566-.145-.848l-.169.001z" class="prefix__cls-1" data-name="Path 664" transform="translate(-169.348 -153.487)"/>
        <path id="prefix__Path_665" d="M595.373 176.778c0 2.221.017 4.442-.012 6.663-.008.6.188.8.775.77.746-.042 1.5 0 2.246-.014.416-.009.58.164.567.576-.017.6-.015 1.207 0 1.811.01.4-.136.585-.559.579q-4.138-.015-8.275 0c-.373 0-.553-.132-.544-.527.014-.647.012-1.294 0-1.941-.006-.365.165-.512.507-.494h.128c1.39-.042 1.39-.042 1.39-1.422 0-4.183-.01-8.367.012-12.551 0-.615-.166-.832-.8-.814-1.341.037-1.2.151-1.206-1.195 0-.431.012-.863 0-1.294-.013-.383.145-.556.529-.546 3.7.092 7.4.1 11.087.3a4.513 4.513 0 0 1 4.125 3.2 8.588 8.588 0 0 1 .177 5.4 5.288 5.288 0 0 1-4.916 3.982 29.332 29.332 0 0 1-3.2.034c-.412 0-.563-.194-.548-.6.022-.56.026-1.122 0-1.681-.02-.46.175-.6.608-.591a14.813 14.813 0 0 0 1.794-.027 2.846 2.846 0 0 0 2.018-.879 2.894 2.894 0 0 0 .8-2.064 9.786 9.786 0 0 0 0-1.1 2.85 2.85 0 0 0-.778-2.107 2.8 2.8 0 0 0-2.053-.875c-1.127-.087-2.264-.025-3.4-.042-.54-.009-.481.373-.481.715q.008 3.366.009 6.734z" class="prefix__cls-1" data-name="Path 665" transform="translate(-481.592 -154.202)"/>
        <path id="prefix__Path_666" d="M448.833 218.407c-.87 0-1.588-.023-2.3.008-.493.02-.7-.139-.675-.658.033-.6.023-1.207 0-1.81-.013-.4.117-.593.544-.591q3.559.015 7.119 0c.388 0 .533.161.522.544-.017.625-.014 1.25 0 1.875.008.359-.072.568-.5.556a1.924 1.924 0 0 0-1.932 1.469q-2.687 6.607-5.457 13.179a5.588 5.588 0 0 1-4.313 3.394 3.364 3.364 0 0 1-2.836-.691 1.2 1.2 0 0 1-.367-.69 7.09 7.09 0 0 1-.007-1.031c-.013-.52.212-.731.738-.7.7.034 1.409.005 2.114.007a1.433 1.433 0 0 0 1.42-.912c.009-.02.022-.037.032-.057 1.406-2.717 1.409-2.719.181-5.515-1.047-2.384-2.127-4.75-3.14-7.151a2.023 2.023 0 0 0-2.167-1.348c-.607.031-.8-.2-.756-.786a14.557 14.557 0 0 0 .005-1.551c-.013-.4.127-.593.551-.59q2.5.018 5 0c.476-.005.6.228.557.641-.357 3.361 1.567 5.992 2.681 8.885l.241.044c.895-2.133 1.792-4.257 2.745-6.521z" class="prefix__cls-1" data-name="Path 666" transform="translate(-350.882 -196.838)"/>
        <path id="prefix__Path_667" d="M727.509 225.169a5.967 5.967 0 0 1-3.216 1.88 4.7 4.7 0 0 1-4.528-1.128 4.384 4.384 0 0 1-.548-4.717 2.632 2.632 0 0 1 1.646-1.356c1.912-.45 3.832-.866 5.761-1.232.521-.1.764-.24.72-.8a16.113 16.113 0 0 1-.006-1.616c.008-.357-.149-.507-.5-.5-1.069.007-2.138 0-3.206 0-.343 0-.519.159-.5.512a1.088 1.088 0 0 1 0 .129c-.086 1.4-.086 1.4-1.514 1.4-1.778 0-2.485-1-1.934-2.755a2.6 2.6 0 0 1 1.316-1.601 9.138 9.138 0 0 1 7.878-.309 2.82 2.82 0 0 1 1.84 2.585c.12 1.588.113 3.184.153 4.779.022.862.032 1.724.037 2.585 0 .609.3.935.9.923.529-.01.725.219.689.744a10.518 10.518 0 0 0 0 1.422.676.676 0 0 1-.127.545.664.664 0 0 1-.493.259 3.6 3.6 0 0 1-4.058-1.331c-.08-.113-.169-.232-.31-.418zm.015-4.487c-1.5.365-2.893.658-4.255 1.051a1.125 1.125 0 0 0-.693 1.269 1.443 1.443 0 0 0 .629 1.009 3.128 3.128 0 0 0 3.219-.342c1.02-.693.964-1.769 1.1-2.989z" class="prefix__cls-1" data-name="Path 667" transform="translate(-594.21 -194.214)"/>
        <path id="prefix__Path_668" d="M852.018 216.65c0 1.863 0 1.833-1.838 1.878a.966.966 0 0 1-.739-.162.982.982 0 0 1-.4-.647c-.131-.431-.417-1.023-.764-1.136a2.979 2.979 0 0 0-2.66.2 1.314 1.314 0 0 0 .4 2.221c.919.4 1.891.677 2.833 1.023a13.445 13.445 0 0 1 1.48.613 4.039 4.039 0 0 1-.419 7.354 11.49 11.49 0 0 1-7 .082c-.206-.056-.406-.136-.614-.183a1.111 1.111 0 0 1-.957-1.183c-.027-.883-.077-1.765-.141-2.646-.027-.37.107-.519.466-.5.277.012.556 0 .833 0 .4.01.915-.114 1.182.087.243.183.233.72.314 1.108a1.1 1.1 0 0 0 .925.954 14.739 14.739 0 0 0 2.352.137c.561-.015 1.12-.189 1.246-.89a1.629 1.629 0 0 0-.865-1.6c-.742-.325-1.522-.559-2.283-.844a15.759 15.759 0 0 1-1.846-.731 3.975 3.975 0 0 1-2.089-4.51 3.893 3.893 0 0 1 3.511-3.262 20.452 20.452 0 0 1 3.447.031c.915.058 1.819.25 2.732.365a.885.885 0 0 1 .688.3.9.9 0 0 1 .219.722c-.025.4-.015.81-.013 1.219z" class="prefix__cls-1" data-name="Path 668" transform="translate(-700.919 -195.615)"/>
        <path id="prefix__Path_669" d="M955.122 216.861a9.726 9.726 0 0 1-.022 1.355c-.025.173-.26.365-.445.453-.156.073-.381 0-.57.022-1.11.158-1.956-.039-2.159-1.383-.037-.246-.472-.549-.767-.611a5.112 5.112 0 0 0-1.59-.049c-.806.087-1.232.493-1.3 1.114a1.446 1.446 0 0 0 .946 1.469c.914.365 1.858.646 2.778.992a12.169 12.169 0 0 1 1.7.742 3.6 3.6 0 0 1 1.913 3.42 3.681 3.681 0 0 1-2.112 3.567 10.15 10.15 0 0 1-6.659.492c-2.792-.63-2.311-.53-2.469-2.831-.128-1.874-.133-1.874 1.7-1.871.891 0 .9 0 .972.916a1.191 1.191 0 0 0 1.072 1.251 12.549 12.549 0 0 0 2.663.02.9.9 0 0 0 .794-.5.919.919 0 0 0-.065-.94 2.67 2.67 0 0 0-1.025-1.066 14.753 14.753 0 0 0-2.047-.743c-.484-.172-.975-.327-1.442-.536a4 4 0 0 1-2.511-4.408 3.9 3.9 0 0 1 3.657-3.556 30.38 30.38 0 0 1 4.208.161c.638.04 1.27.168 1.906.247a.852.852 0 0 1 .659.287.868.868 0 0 1 .21.693c-.005.432.005.862.005 1.293z" class="prefix__cls-1" data-name="Path 669" transform="translate(-790.822 -195.793)"/>
        <g>
            <path id="prefix__Path_670-2" d="M989.957 376.092c.012-.225.032-.45.032-.675v-4.912c0-.326-.035-.669.463-.666.483 0 .473.322.473.658 0 2.09.008 4.18-.009 6.268 0 .321.208.811-.343.89-.521.073-1.025.116-1.335-.549-.635-1.363-1.354-2.686-2.043-4.024-.278-.541-.572-1.074-.859-1.608l-.168.042c-.015.219-.042.443-.043.663 0 1.616 0 3.231-.005 4.847 0 .292.055.631-.408.653-.331.015-.54-.073-.539-.453 0-2.3-.006-4.611.015-6.915 0-.156.2-.438.318-.438.461-.025.975-.206 1.278.411.729 1.485 1.5 2.951 2.251 4.424.243.472.489.943.733 1.415z" class="prefix__cls-1" data-name="Path 670" transform="translate(-826.44 -333.51)"/>
        </g>
        <g>
            <path id="prefix__Path_671-2" d="M700.639 373.086c0 .819.015 1.638 0 2.457a2.085 2.085 0 0 1-1.877 2.24 5.377 5.377 0 0 1-1.594.031 2.144 2.144 0 0 1-1.533-.733 2.181 2.181 0 0 1-.529-1.626c-.019-1.638 0-3.276-.008-4.913 0-.357.035-.633.5-.646s.5.263.5.623q-.009 2.393 0 4.785c.005 1.183.517 1.65 1.788 1.651s1.761-.45 1.766-1.659q.008-2.36 0-4.72c0-.376.012-.692.524-.678.485.013.471.332.469.669-.006.839-.005 1.68-.006 2.519z" class="prefix__cls-1" data-name="Path 671" transform="translate(-573.58 -333.58)"/>
        </g>
        <g>
            <path id="prefix__Path_672-2" d="M607.44 377.589c.283-.888.541-1.741.825-2.585.512-1.528 1.06-3.043 1.548-4.579a.774.774 0 0 1 .888-.608.784.784 0 0 1 .9.6c.7 2.166 1.449 4.318 2.162 6.481.081.245.362.6-.1.745a.618.618 0 0 1-.526-.034.628.628 0 0 1-.311-.429c-.513-1.395-.53-1.388-2.036-1.388h-.128c-1.531 0-1.546-.007-2.086 1.415-.206.531-.558.51-1.136.382zm3.364-6.7l-.2-.013-1.273 3.99h2.737c-.437-1.389-.85-2.685-1.268-3.981z" class="prefix__cls-1" data-name="Path 672" transform="translate(-497.17 -333.51)"/>
        </g>
        <g>
            <path id="prefix__Path_673-2" d="M779.032 376.391c.864.069 1.646.169 2.432.181.836.013 1.152-.282 1.238-1 .113-.935-.112-1.3-.942-1.543-.6-.171-1.195-.332-1.786-.511a1.232 1.232 0 0 1-.915-1.062 6.061 6.061 0 0 1-.041-1.539 1.451 1.451 0 0 1 1.428-1.415 14.954 14.954 0 0 1 2.612.073c.167.014.422.341.435.536.025.415-.318.341-.6.316-.574-.048-1.15-.1-1.726-.1-.8 0-1.127.268-1.2.877-.125 1.027.072 1.374.922 1.624.574.168 1.154.321 1.726.495a1.327 1.327 0 0 1 1.041 1.315 9.176 9.176 0 0 1-.072 1.6 1.332 1.332 0 0 1-1.057 1.1 5.99 5.99 0 0 1-3.229-.094c-.542-.15-.41-.505-.266-.853z" class="prefix__cls-1" data-name="Path 673" transform="translate(-646.63 -333.21)"/>
        </g>
        <g>
            <path id="prefix__Path_674-2" d="M855.331 374.311c0 .969-.009 1.94 0 2.909.005.37-.1.552-.507.554s-.5-.207-.5-.564c.008-1.9-.015-3.792.014-5.689.008-.545-.17-.731-.7-.685a5.146 5.146 0 0 1-1.214-.014c-.162-.025-.428-.292-.406-.4.041-.186.263-.47.413-.472q2.372-.053 4.743 0c.154 0 .3.3.451.454-.159.146-.3.393-.48.421a6.116 6.116 0 0 1-1.28.015c-.421-.026-.563.146-.556.563.036.969.022 1.938.022 2.908z" class="prefix__cls-1" data-name="Path 674" transform="translate(-710.37 -333.61)"/>
        </g>
        <g>
            <path id="prefix__Path_675-2" d="M934.713 373.876v3.168c0 .341.057.71-.481.722s-.507-.331-.507-.69v-6.465c0-.361-.013-.7.507-.692s.479.381.48.725c.003 1.077.001 2.156.001 3.232z" class="prefix__cls-1" data-name="Path 675" transform="translate(-781.58 -333.6)"/>
        </g>
    </g>
</svg>
