<!-- width="160.621" height="203.964" -->
<svg xmlns="http://www.w3.org/2000/svg" viewBox="0 0 160.621 203.964">
  <g id="Group_1932" data-name="Group 1932" transform="translate(-442 -935)">
    <g id="Group_1274" data-name="Group 1274" transform="translate(-3360.082 -983.564)">
      <g id="Group_977" data-name="Group 977" transform="translate(3802.083 1918.565)">
        <path id="Subtraction_21" data-name="Subtraction 21" d="M145.571,203.964H15.049a15.068,15.068,0,0,1-10.61-4.372A14.839,14.839,0,0,1,0,189.076V14.888A14.841,14.841,0,0,1,4.44,4.372,15.063,15.063,0,0,1,15.049,0h95.61V38.074a12.984,12.984,0,0,0,13.033,12.918h36.928V189.076a14.844,14.844,0,0,1-4.441,10.515A15.067,15.067,0,0,1,145.571,203.964Zm9.846-160.39H123.68a5.528,5.528,0,0,1-5.55-5.5V5.49l37.284,38.08Z" transform="translate(0 0)" fill="#c2c2c2"/>
      </g>
    </g>
    <g id="security" transform="translate(404.373 1003.838)">
      <path id="Path_1249" data-name="Path 1249" d="M138.359,32.114V20.754a20.754,20.754,0,1,0-41.508,0V32.114a12.651,12.651,0,0,0-10.224,12.4V81.206A12.646,12.646,0,0,0,99.259,93.838h36.693a12.646,12.646,0,0,0,12.632-12.632V44.513a12.651,12.651,0,0,0-10.224-12.4ZM117.605,5.889A14.882,14.882,0,0,1,132.47,20.754V31.882H102.74V20.754A14.882,14.882,0,0,1,117.605,5.889Zm25.089,75.317a6.751,6.751,0,0,1-6.743,6.743H99.258a6.751,6.751,0,0,1-6.743-6.743V44.513a6.751,6.751,0,0,1,6.743-6.743h36.693a6.751,6.751,0,0,1,6.743,6.743Z" fill="#f8f8f8"/>
      <path id="Path_1250" data-name="Path 1250" d="M221.058,289.969a6.6,6.6,0,0,0,1.72,10.568v3.774a2.944,2.944,0,1,0,5.889,0v-3.774a6.6,6.6,0,1,0-7.609-10.568Z" transform="translate(-108.117 -235.034)" fill="#f8f8f8"/>
    </g>
  </g>
</svg>
