<svg xmlns="http://www.w3.org/2000/svg" width="101" height="50" viewBox="0 0 101 50">
  <g id="Group_2507" data-name="Group 2507" transform="translate(-184 -461)">
    <g id="Group_2505" data-name="Group 2505" transform="translate(100 -71)">
      <rect id="Rectangle_1107" data-name="Rectangle 1107" width="101" height="50" rx="10" transform="translate(84 532)" fill="#76b3ef"/>
      <text id="Password" transform="translate(134 574)" fill="#fff" font-size="16" font-family="Montserrat-Medium, Montserrat" font-weight="500"><tspan x="-39.168" y="0">Password</tspan></text>
    </g>
    <g id="Group_2414" data-name="Group 2414" transform="translate(38 231)">
      <path id="Path_1527" data-name="Path 1527" d="M75.284,35.018H74.81V32.729A3.832,3.832,0,0,0,70.981,28.9H69.6a3.832,3.832,0,0,0-3.829,3.829v2.289H65.3a1.685,1.685,0,0,0-1.7,1.7v7.105a1.685,1.685,0,0,0,1.7,1.7h9.987a1.685,1.685,0,0,0,1.7-1.7V36.716A1.71,1.71,0,0,0,75.284,35.018Zm-3.868,7.5a.277.277,0,0,1-.276.355h-1.7a.291.291,0,0,1-.276-.355l.553-2.21a1.307,1.307,0,0,1-.789-1.224,1.342,1.342,0,0,1,2.684,0,1.307,1.307,0,0,1-.789,1.224Zm1.105-7.5H68.06V32.729A1.541,1.541,0,0,1,69.6,31.189h1.382a1.541,1.541,0,0,1,1.539,1.539Z" transform="translate(136.633 209.1)" fill="#fff"/>
      <path id="Path_1528" data-name="Path 1528" d="M16.387,47.184a.678.678,0,0,0-.931-.233l-1.164.652V46.252a.652.652,0,0,0-1.3,0V47.6l-1.164-.652a.679.679,0,1,0-.7,1.164l1.164.652-1.164.652a.678.678,0,0,0-.233.931.608.608,0,0,0,.559.326.863.863,0,0,0,.326-.093l1.164-.652v1.351a.652.652,0,1,0,1.3,0V49.931l1.164.652a.863.863,0,0,0,.326.093.646.646,0,0,0,.559-.326.678.678,0,0,0-.233-.931L14.9,48.767l1.164-.652A.7.7,0,0,0,16.387,47.184Z" transform="translate(173.068 200.178)" fill="#fff"/>
      <path id="Path_1529" data-name="Path 1529" d="M33.887,47.184a.678.678,0,0,0-.931-.233l-1.164.652V46.252a.652.652,0,0,0-1.3,0V47.6l-1.164-.652a.679.679,0,1,0-.7,1.164l1.164.652-1.164.652a.678.678,0,0,0-.233.931.608.608,0,0,0,.559.326.863.863,0,0,0,.326-.093l1.164-.652v1.351a.652.652,0,1,0,1.3,0V49.931l1.164.652a.863.863,0,0,0,.326.093.646.646,0,0,0,.559-.326.678.678,0,0,0-.233-.931L32.4,48.767l1.164-.652A.7.7,0,0,0,33.887,47.184Z" transform="translate(163.719 200.178)" fill="#fff"/>
      <path id="Path_1530" data-name="Path 1530" d="M21.487,39.252c0-.373-.183-.652-.427-.652H4.912C3.568,38.6,2.5,40.277,2.5,42.279v5.449c0,2.049,1.1,3.679,2.412,3.679H19.381c.244,0,.427-.279.427-.652s-.183-.652-.427-.652H4.912c-.855,0-1.557-1.071-1.557-2.375V42.279c0-1.3.7-2.375,1.557-2.375H21.059C21.3,39.951,21.487,39.625,21.487,39.252Z" transform="translate(177.5 203.918)" fill="#fff"/>
    </g>
  </g>
</svg>
