<svg xmlns="http://www.w3.org/2000/svg" width="202" height="28" viewBox="0 0 202 28">
  <g id="Group_2415" data-name="Group 2415" transform="translate(-74 -465)">
    <g id="Group_2413" data-name="Group 2413" transform="translate(-11.486 -7)">
      <rect id="Rectangle_1356" data-name="Rectangle 1356" width="202" height="28" rx="14" transform="translate(85.486 472)" fill="#76b3ef"/>
      <text id="Login_with_a_password" data-name="Login with a password" transform="translate(203.486 491)" fill="#fff" font-size="13" font-family="Montserrat-Regular, Montserrat"><tspan x="-73.04" y="0">Login with a password</tspan></text>
    </g>
    <g id="Group_2414" data-name="Group 2414" transform="translate(-94 234)">
      <path id="Path_1527" data-name="Path 1527" d="M72.458,33.539H72.1V31.8a2.906,2.906,0,0,0-2.9-2.9H68.149a2.906,2.906,0,0,0-2.9,2.9v1.736h-.359A1.277,1.277,0,0,0,63.6,34.825v5.387A1.277,1.277,0,0,0,64.887,41.5h7.571a1.277,1.277,0,0,0,1.287-1.287V34.825A1.3,1.3,0,0,0,72.458,33.539Zm-2.933,5.686a.21.21,0,0,1-.209.269H68.029a.221.221,0,0,1-.209-.269l.419-1.676a.991.991,0,0,1-.6-.928,1.017,1.017,0,0,1,2.035,0,.991.991,0,0,1-.6.928Zm.838-5.686H66.982V31.8a1.169,1.169,0,0,1,1.167-1.167H69.2A1.169,1.169,0,0,1,70.363,31.8Z" transform="translate(131.739 209.1)" fill="#fff"/>
      <path id="Path_1528" data-name="Path 1528" d="M15.035,46.8a.514.514,0,0,0-.706-.177l-.883.494V46.094a.494.494,0,0,0-.989,0v1.024l-.883-.494a.515.515,0,1,0-.53.883l.883.494-.883.494a.514.514,0,0,0-.177.706.461.461,0,0,0,.424.247.655.655,0,0,0,.247-.071l.883-.494v1.024a.494.494,0,1,0,.989,0V48.884l.883.494a.655.655,0,0,0,.247.071.49.49,0,0,0,.424-.247.514.514,0,0,0-.177-.706L13.9,48l.883-.494A.527.527,0,0,0,15.035,46.8Z" transform="translate(172.133 198.297)" fill="#fff"/>
      <path id="Path_1529" data-name="Path 1529" d="M32.535,46.8a.514.514,0,0,0-.706-.177l-.883.494V46.094a.494.494,0,0,0-.989,0v1.024l-.883-.494a.515.515,0,1,0-.53.883l.883.494-.883.494a.514.514,0,0,0-.177.706.461.461,0,0,0,.424.247.654.654,0,0,0,.247-.071l.883-.494v1.024a.494.494,0,1,0,.989,0V48.884l.883.494a.655.655,0,0,0,.247.071.49.49,0,0,0,.424-.247.514.514,0,0,0-.177-.706L31.4,48l.883-.494A.527.527,0,0,0,32.535,46.8Z" transform="translate(160.813 198.297)" fill="#fff"/>
      <path id="Path_1530" data-name="Path 1530" d="M16.895,39.094c0-.282-.139-.494-.324-.494H4.328C3.31,38.6,2.5,39.871,2.5,41.389v4.131c0,1.554.833,2.789,1.828,2.789H15.3c.185,0,.324-.212.324-.494s-.139-.494-.324-.494H4.328c-.648,0-1.18-.812-1.18-1.8V41.389c0-.989.532-1.8,1.18-1.8H16.571C16.756,39.624,16.895,39.377,16.895,39.094Z" transform="translate(177.5 202.825)" fill="#fff"/>
    </g>
  </g>
</svg>
