<svg xmlns="http://www.w3.org/2000/svg" width="87" height="44.842" viewBox="0 0 87 44.842">
  <g id="Group_1861" data-name="Group 1861" transform="translate(-180 -238)">
    <path id="Path_1527" data-name="Path 1527" d="M93.84,44.735H92.614V38.81A9.919,9.919,0,0,0,82.7,28.9H79.129a9.919,9.919,0,0,0-9.91,9.91v5.925H67.993A4.361,4.361,0,0,0,63.6,49.128V67.518a4.361,4.361,0,0,0,4.393,4.393H93.84a4.361,4.361,0,0,0,4.393-4.393V49.128A4.426,4.426,0,0,0,93.84,44.735ZM83.828,64.146a.717.717,0,0,1-.715.919H78.72a.753.753,0,0,1-.715-.919l1.43-5.721a3.383,3.383,0,0,1-2.043-3.167,3.474,3.474,0,1,1,6.947,0A3.383,3.383,0,0,1,82.3,58.425Zm2.861-19.411H75.144V38.81a3.989,3.989,0,0,1,3.984-3.984H82.7a3.989,3.989,0,0,1,3.984,3.984Z" transform="translate(168.767 209.1)" fill="#4ba9d9"/>
    <path id="Path_1528" data-name="Path 1528" d="M25.266,49.7a1.756,1.756,0,0,0-2.411-.6l-3.014,1.688v-3.5a1.688,1.688,0,0,0-3.375,0v3.5L13.453,49.1a1.757,1.757,0,1,0-1.808,3.014L14.658,53.8l-3.014,1.688a1.756,1.756,0,0,0-.6,2.411,1.574,1.574,0,0,0,1.447.844,2.234,2.234,0,0,0,.844-.241l3.014-1.688v3.5a1.688,1.688,0,0,0,3.375,0v-3.5L22.735,58.5a2.235,2.235,0,0,0,.844.241,1.672,1.672,0,0,0,1.447-.844,1.756,1.756,0,0,0-.6-2.411L21.409,53.8l3.014-1.688A1.8,1.8,0,0,0,25.266,49.7Z" transform="translate(179.205 212.531)" fill="#4ba9d9"/>
    <path id="Path_1529" data-name="Path 1529" d="M42.766,49.7a1.756,1.756,0,0,0-2.411-.6l-3.014,1.688v-3.5a1.688,1.688,0,1,0-3.375,0v3.5L30.953,49.1a1.757,1.757,0,0,0-1.808,3.014L32.158,53.8l-3.014,1.688a1.756,1.756,0,0,0-.6,2.411,1.574,1.574,0,0,0,1.447.844,2.235,2.235,0,0,0,.844-.241l3.014-1.688v3.5a1.688,1.688,0,1,0,3.375,0v-3.5L40.235,58.5a2.235,2.235,0,0,0,.844.241,1.672,1.672,0,0,0,1.447-.844,1.756,1.756,0,0,0-.6-2.411L38.909,53.8l3.014-1.688A1.8,1.8,0,0,0,42.766,49.7Z" transform="translate(182.801 212.531)" fill="#4ba9d9"/>
    <path id="Path_1530" data-name="Path 1530" d="M51.641,40.288c0-.964-.474-1.688-1.106-1.688H8.741C5.265,38.6,2.5,42.94,2.5,48.123v14.1c0,5.3,2.844,9.523,6.241,9.523H46.19c.632,0,1.106-.723,1.106-1.688s-.474-1.688-1.106-1.688H8.741c-2.212,0-4.029-2.772-4.029-6.148v-14.1c0-3.375,1.817-6.148,4.029-6.148H50.535C51.167,42.1,51.641,41.252,51.641,40.288Z" transform="translate(177.5 211.093)" fill="#4ba9d9"/>
  </g>
</svg>
