<svg xmlns="http://www.w3.org/2000/svg" width="96.69" height="96.69" viewBox="0 0 96.69 96.69">
  <g id="Group_2537" data-name="Group 2537" transform="translate(-128.634 -145.244)">
    <path id="Path_1908" data-name="Path 1908" d="M22.084,68.372A22.077,22.077,0,1,1,31.027,26.1L56.734.4A1.354,1.354,0,0,1,57.7,0a.512.512,0,0,1,.15.014L66.183,1a1.379,1.379,0,0,1,1.19,1.2l.985,8.314a1.328,1.328,0,0,1-.383,1.121l-5.388,5.388a1.354,1.354,0,0,1-1.942,0L59.25,15.63l-3.145,3.159L57.5,20.184a1.353,1.353,0,0,1,.4.971,1.323,1.323,0,0,1-.4.957l-4.075,4.075a1.362,1.362,0,0,1-1.928,0L50.1,24.792l-3.159,3.145,1.395,1.395a1.367,1.367,0,0,1,.41.971,1.391,1.391,0,0,1-.41.971l-6.071,6.071a21.812,21.812,0,0,1,1.887,8.943A21.884,21.884,0,0,1,37.686,61.9,21.918,21.918,0,0,1,22.084,68.372Zm2.338-24.422a6.762,6.762,0,0,0-11.541,4.786,6.762,6.762,0,0,0,13.524,0A6.77,6.77,0,0,0,24.422,43.949Z" transform="translate(176.98 145.244) rotate(45)" fill="#ececec"/>
    <g id="Group_2528" data-name="Group 2528" transform="translate(-55 15)">
      <g id="Ellipse_676" data-name="Ellipse 676" transform="translate(226 148)" fill="#fff" stroke="#707070" stroke-width="1">
        <circle cx="14" cy="14" r="14" stroke="none"/>
        <circle cx="14" cy="14" r="13.5" fill="none"/>
      </g>
      <path id="noun_Warning_223358" d="M34.757,34.757a18.823,18.823,0,1,0-26.619,0A18.824,18.824,0,0,0,34.757,34.757ZM19.342,12.349a2.307,2.307,0,0,1,4.41,1.152c-.04.755-.079,1.47-.119,2.225-.159,2.781-.318,5.562-.437,8.3a1.709,1.709,0,0,1-3.417-.079c-.04-.556-.04-1.112-.079-1.669-.119-1.788-.2-3.576-.318-5.4-.079-1.152-.119-2.3-.2-3.457A2.087,2.087,0,0,1,19.342,12.349Zm2.106,14.939a2.367,2.367,0,0,1,2.344,2.3,2.3,2.3,0,0,1-4.609.04A2.281,2.281,0,0,1,21.447,27.288Z" transform="translate(218.375 140.375)" fill="#4ba9d9"/>
    </g>
  </g>
</svg>
