<svg xmlns="http://www.w3.org/2000/svg" width="237.492" height="162.335" viewBox="0 0 237.492 162.335">
  <g id="Group_2538" data-name="Group 2538" transform="translate(-60.326 -280.244)">
    <path id="Path_1915" data-name="Path 1915" d="M14.916,46.18a14.911,14.911,0,1,1,6.04-28.548L38.32.269A.914.914,0,0,1,38.975,0a.346.346,0,0,1,.1.009L44.7.675a.931.931,0,0,1,.8.813L46.17,7.1a.9.9,0,0,1-.259.757L42.273,11.5a.914.914,0,0,1-1.311,0l-.942-.942-2.124,2.134.942.942a.914.914,0,0,1,.268.656.893.893,0,0,1-.268.647l-2.752,2.752a.92.92,0,0,1-1.3,0l-.942-.942L31.707,18.87l.942.942a.923.923,0,0,1,.277.656.939.939,0,0,1-.277.656l-4.1,4.1a14.732,14.732,0,0,1,1.275,6.04,14.781,14.781,0,0,1-4.369,10.547A14.8,14.8,0,0,1,14.916,46.18Zm1.579-16.5a4.567,4.567,0,0,0-7.8,3.233,4.567,4.567,0,0,0,9.134,0A4.573,4.573,0,0,0,16.5,29.685Z" transform="translate(92.98 280.244) rotate(45)" fill="#ececec"/>
    <g id="Group_2492" data-name="Group 2492" transform="translate(-128 -572.28)">
      <text id="There_is_no_way_to_recover_this_account_if_you_loose_your_key" data-name="There is no way to 
recover this account
 if you loose your key" transform="translate(343.818 870.86)" fill="#4ba9d9" font-size="15" font-family="Montserrat-Medium, Montserrat" font-weight="500"><tspan x="-70.478" y="0">There is no way to </tspan><tspan x="-77.295" y="19">recover this account</tspan><tspan x="-78.87" y="38" xml:space="preserve"> if you loose your key</tspan></text>
      <text id="Anyone_with_this_key_can_have_full_access_to_your_account" data-name="Anyone with this key 
can have full access 
to your account" transform="translate(343.818 972.86)" fill="#4ba9d9" font-size="15" font-family="Montserrat-Medium, Montserrat" font-weight="500"><tspan x="-81.428" y="0">Anyone with this key </tspan><tspan x="-77.1" y="19">can have full access </tspan><tspan x="-59.767" y="38">to your account</tspan></text>
    </g>
    <g id="noun_hacker_2729199" transform="translate(52.923 375.632)">
      <g id="Group_2496" data-name="Group 2496" transform="translate(17.581 43.243)">
        <path id="Path_1913" data-name="Path 1913" d="M54.829,53.066c-.393,0-.8.006-1.217.012s-.874.014-1.325.014H29.813c-.451,0-.894-.007-1.325-.014s-.823-.012-1.217-.012c-3.2,0-6.321.432-6.321,5.6,0,4.934,0,10.035,6.527,10.035h5.56a5.358,5.358,0,0,0,4.733-2.282,3.64,3.64,0,0,1,3.278-1.669,4.126,4.126,0,0,1,3.527,1.76A5.371,5.371,0,0,0,49.062,68.7h5.56c6.527,0,6.527-5.1,6.527-10.035C61.15,53.5,58.028,53.066,54.829,53.066ZM31.9,63.529c-2.662,0-5.163-1.729-5.163-2.771s2.5-2.771,5.163-2.771,5.164,1.561,5.164,2.771C37.066,61.9,34.4,63.529,31.9,63.529Zm17.965,0c-2.493,0-5.164-1.626-5.164-2.771s2.671-2.771,5.164-2.771c2.66,0,5.163,1.561,5.163,2.771C55.031,61.9,52.361,63.529,49.868,63.529Z" transform="translate(-20.951 -53.066)" fill="#5ab6e5"/>
      </g>
      <g id="Group_2497" data-name="Group 2497" transform="translate(10.077 21.368)">
        <path id="Path_1914" data-name="Path 1914" d="M56.381,31.64c.064.674.108,1.365.108,2.089a.69.69,0,1,1-1.38,0c0-3.716-1.058-12.36-10.859-12.36H31.413c-8.479,0-11.5,6.385-11.5,12.36a.69.69,0,1,1-1.38,0,19.127,19.127,0,0,1,.118-2.03c-5.277.985-8.575,2.373-8.575,3.912,0,2.985,12.359,5.406,27.6,5.406s27.6-2.42,27.6-5.406C65.285,34.04,61.849,32.628,56.381,31.64ZM43.452,24.534c-.605.589-2.161,1.576-5.771,1.576s-5.168-.988-5.772-1.577a.691.691,0,1,1,.964-.989c.285.278,1.475,1.186,4.809,1.186s4.523-.907,4.809-1.186a.69.69,0,1,1,.961.99Z" transform="translate(-10.077 -21.368)" fill="#5ab6e5"/>
      </g>
    </g>
    <g id="noun_Question_727759" transform="translate(49 -677.362)">
      <path id="Path_1916" data-name="Path 1916" d="M43.79,973.362c-5.32,0-9.656,3.464-10.735,7.784a1.907,1.907,0,1,0,3.7.933c.579-2.32,3.45-4.9,7.037-4.9a8.1,8.1,0,0,1,4.93,1.708,5.092,5.092,0,0,1,2.067,4.011,5.506,5.506,0,0,1-.994,3.753,13,13,0,0,1-2.664,2.145,11.421,11.421,0,0,0-3.618,3.912,16.623,16.623,0,0,0-1.61,7.982,1.907,1.907,0,1,0,3.8,0,12.859,12.859,0,0,1,1.173-6.175,7.293,7.293,0,0,1,2.485-2.6,14.4,14.4,0,0,0,3.459-2.919,9.69,9.69,0,0,0,1.789-6.1,9.037,9.037,0,0,0-3.5-6.97,11.684,11.684,0,0,0-7.315-2.562Zm.02,31.771a2.542,2.542,0,1,0,2.545,2.542,2.543,2.543,0,0,0-2.545-2.542Z" transform="translate(0 0)" fill="#5ab6e5"/>
    </g>
  </g>
</svg>
