<svg xmlns="http://www.w3.org/2000/svg" width="202" height="28" viewBox="0 0 202 28">
  <g id="Group_2426" data-name="Group 2426" transform="translate(-79 -445)">
    <g id="Group_2415" data-name="Group 2415" transform="translate(5 -20)">
      <g id="Group_2413" data-name="Group 2413" transform="translate(-11.486 -7)">
        <path id="Path_1907" data-name="Path 1907" d="M14,0H188a14,14,0,0,1,0,28H14A14,14,0,0,1,14,0Z" transform="translate(85.486 472)" fill="#76b3ef"/>
        <text id="Login_with_a_private_key" data-name="Login with a private key" transform="translate(200.486 491)" fill="#fff" font-size="13" font-family="Montserrat-Regular, Montserrat"><tspan x="-77.168" y="0">Login with a private key</tspan></text>
      </g>
    </g>
    <path id="Path_1345" data-name="Path 1345" d="M5.619,17.4A5.618,5.618,0,1,1,7.895,6.643L14.436.1a.344.344,0,0,1,.247-.1.13.13,0,0,1,.038,0L16.84.255a.351.351,0,0,1,.3.306l.251,2.115a.338.338,0,0,1-.1.285L15.925,4.332a.344.344,0,0,1-.494,0l-.355-.355-.8.8.355.355a.344.344,0,0,1,.1.247.337.337,0,0,1-.1.244L13.594,6.664a.346.346,0,0,1-.491,0l-.355-.355-.8.8.355.355a.348.348,0,0,1,.1.247.354.354,0,0,1-.1.247L10.755,9.5a5.55,5.55,0,0,1,.48,2.276A5.619,5.619,0,0,1,5.619,17.4Zm.595-6.214A1.721,1.721,0,0,0,3.278,12.4a1.721,1.721,0,0,0,3.441,0A1.723,1.723,0,0,0,6.214,11.183Z" transform="translate(100.98 447.244) rotate(45)" fill="#fff"/>
  </g>
</svg>
