<svg xmlns="http://www.w3.org/2000/svg" width="96.69" height="96.69" viewBox="0 0 96.69 96.69">
  <g id="Group_2490" data-name="Group 2490" transform="translate(-124.634 -74.244)">
    <path id="Path_1908" data-name="Path 1908" d="M22.084,68.372A22.077,22.077,0,1,1,31.027,26.1L56.734.4A1.354,1.354,0,0,1,57.7,0a.512.512,0,0,1,.15.014L66.183,1a1.379,1.379,0,0,1,1.19,1.2l.985,8.314a1.328,1.328,0,0,1-.383,1.121l-5.388,5.388a1.354,1.354,0,0,1-1.942,0L59.25,15.63l-3.145,3.159L57.5,20.184a1.353,1.353,0,0,1,.4.971,1.323,1.323,0,0,1-.4.957l-4.075,4.075a1.362,1.362,0,0,1-1.928,0L50.1,24.792l-3.159,3.145,1.395,1.395a1.367,1.367,0,0,1,.41.971,1.391,1.391,0,0,1-.41.971l-6.071,6.071a21.812,21.812,0,0,1,1.887,8.943A21.884,21.884,0,0,1,37.686,61.9,21.918,21.918,0,0,1,22.084,68.372Zm2.338-24.422a6.762,6.762,0,0,0-11.541,4.786,6.762,6.762,0,0,0,13.524,0A6.77,6.77,0,0,0,24.422,43.949Z" transform="translate(172.98 74.244) rotate(45)" fill="#4ba9d9"/>
  </g>
</svg>
