<svg xmlns="http://www.w3.org/2000/svg" xmlns:xlink="http://www.w3.org/1999/xlink" width="195" height="116" viewBox="0 0 195 116">
  <defs>
    <filter id="Rectangle_895" x="0" y="55" width="187" height="61" filterUnits="userSpaceOnUse">
      <feOffset dy="3" input="SourceAlpha"/>
      <feGaussianBlur stdDeviation="3" result="blur"/>
      <feFlood flood-opacity="0.161"/>
      <feComposite operator="in" in2="blur"/>
      <feComposite in="SourceGraphic"/>
    </filter>
  </defs>
  <g id="Group_1437" data-name="Group 1437" transform="translate(-93 -189)">
    <g id="Group_1035" data-name="Group 1035" transform="translate(102 250)">
      <g transform="matrix(1, 0, 0, 1, -9, -61)" filter="url(#Rectangle_895)">
        <rect id="Rectangle_895-2" data-name="Rectangle 895" width="169" height="43" rx="11" transform="translate(9 61)" fill="#fff"/>
      </g>
      <g id="upload" transform="translate(15.293 9.176)" opacity="0.6">
        <g id="Group_1032" data-name="Group 1032" transform="translate(5.424)">
          <g id="Group_1031" data-name="Group 1031" transform="translate(0)">
            <path id="Path_1134" data-name="Path 1134" d="M140.2,6.464,134.78.265a.773.773,0,0,0-1.165,0l-5.424,6.2a.774.774,0,0,0,.583,1.285h3.1V17.821a.775.775,0,0,0,.775.775h3.1a.775.775,0,0,0,.775-.775V7.748h3.1a.774.774,0,0,0,.583-1.285Z" transform="translate(-127.998)" fill="#484848"/>
          </g>
        </g>
        <g id="Group_1034" data-name="Group 1034" transform="translate(0 17.047)">
          <g id="Group_1033" data-name="Group 1033">
            <path id="Path_1135" data-name="Path 1135" d="M36.146,352v4.649H19.1V352H16v6.2a1.549,1.549,0,0,0,1.55,1.55H37.7a1.548,1.548,0,0,0,1.55-1.55V352Z" transform="translate(-16 -352)" fill="#484848"/>
          </g>
        </g>
      </g>
      <text id="Upload_File" data-name="Upload File" transform="translate(51 28)" fill="#484848" font-size="18" font-family="Montserrat-Regular, Montserrat" opacity="0.6"><tspan x="0" y="0">Upload File</tspan></text>
    </g>
    <text id="Tap_here_to_upload_your_document" data-name="Tap here to upload 
your document" transform="translate(191 208)" fill="#484848" font-size="20" font-family="Montserrat-Regular, Montserrat" opacity="0.4"><tspan x="-96.64" y="0">Tap here to upload </tspan><tspan x="-77.81" y="24">your document</tspan></text>
  </g>
</svg>
