<svg xmlns="http://www.w3.org/2000/svg" width="102" height="26.248" viewBox="0 0 102 26.248">
  <g id="Group_2489" data-name="Group 2489" transform="translate(-40)">
    <path id="Path_1391" data-name="Path 1391" d="M60,995.492a2.207,2.207,0,0,1-.533,1.354L48.964,1008a2.255,2.255,0,0,1-2.871.164,2.05,2.05,0,0,1,.02-2.871l7.382-7.834H19.969a1.969,1.969,0,0,1,0-3.937H53.5l-7.382-7.834a2.169,2.169,0,0,1-.02-2.871,2.226,2.226,0,0,1,2.871.164l10.5,11.156A1.893,1.893,0,0,1,60,995.492Z" transform="translate(82.004 -982.365)" fill="#4ba9d9"/>
    <text id="Skip" transform="translate(62 20)" fill="#4ba9d9" font-size="20" font-family="Montserrat-Medium, Montserrat" font-weight="500"><tspan x="-21.91" y="0">Skip</tspan></text>
  </g>
</svg>
