<svg xmlns="http://www.w3.org/2000/svg" width="48.692" height="50.579" viewBox="0 0 48.692 50.579">
  <path id="prefix__noun_Stamp_831862" d="M98 35.71a5.2 5.2 0 0 0 0 6.21A5.2 5.2 0 0 1 95.35 50a5.2 5.2 0 0 0-3.65 5 5.19 5.19 0 0 1-6.86 5 5.2 5.2 0 0 0-5.9 1.92 5.2 5.2 0 0 1-8.48 0 5.2 5.2 0 0 0-5.9-1.92 5.19 5.19 0 0 1-6.86-5 5.2 5.2 0 0 0-3.7-5 5.2 5.2 0 0 1-2.62-8.06 5.2 5.2 0 0 0 0-6.21A5.2 5.2 0 0 1 54 27.64a5.2 5.2 0 0 0 3.65-5 5.19 5.19 0 0 1 6.86-5 5.2 5.2 0 0 0 5.9-1.92 5.2 5.2 0 0 1 8.48 0 5.2 5.2 0 0 0 5.9 1.92 5.19 5.19 0 0 1 6.86 5 5.2 5.2 0 0 0 3.65 5 5.2 5.2 0 0 1 2.7 8.07zM82.33 32.9a3.06 3.06 0 0 0-4.33 0l-5.32 5.32-1.27-1.27a3.062 3.062 0 1 0-4.33 4.33l1.27 1.27 2.17 2.17a3.07 3.07 0 0 0 4.33 0L77 42.55l5.32-5.32a3.06 3.06 0 0 0 .01-4.33z" transform="translate(-50.338 -13.53)" style="fill:#4ba9d9" />
</svg>
