<svg xmlns="http://www.w3.org/2000/svg" width="29.869" height="37.622" viewBox="0 0 29.869 37.622">
    <defs>
        <style>
            .prefix__cls-1{stroke:#000;stroke-width:.3px}
        </style>
    </defs>
    <g id="prefix__surface1" transform="translate(.15 .15)">
        <path id="prefix__Path_1180" d="M20.612.288A.9.9 0 0 0 19.963 0H5.4A4.925 4.925 0 0 0 .5 4.9v27.527a4.925 4.925 0 0 0 4.9 4.9h19.765a4.925 4.925 0 0 0 4.9-4.9V10.565a.97.97 0 0 0-.261-.631zm.261 2.894l6.157 6.464h-4A2.147 2.147 0 0 1 20.874 7.5zm4.291 32.337H5.4a3.123 3.123 0 0 1-3.1-3.092V4.9a3.123 3.123 0 0 1 3.1-3.1h13.671v5.7a3.944 3.944 0 0 0 3.958 3.949h5.238v20.978a3.117 3.117 0 0 1-3.102 3.092zm0 0" class="prefix__cls-1" data-name="Path 1180" transform="translate(-.5)"/>
        <path id="prefix__Path_1181" d="M104.912 401.934H90.073a.9.9 0 0 0 0 1.8h14.848a.9.9 0 1 0-.009-1.8zm0 0" class="prefix__cls-1" data-name="Path 1181" transform="translate(-82.708 -372.635)"/>
        <path id="prefix__Path_1182" d="M119.957 177.482l3.714-3.994v9.844a.9.9 0 0 0 1.8 0v-9.844l3.714 3.994a.9.9 0 0 0 1.316-1.226l-5.283-5.67a.895.895 0 0 0-1.316 0l-5.283 5.67a.9.9 0 0 0 .045 1.271.92.92 0 0 0 1.293-.045zm0 0" class="prefix__cls-1" data-name="Path 1182" transform="translate(-109.789 -157.883)"/>
    </g>
</svg>
