<svg xmlns="http://www.w3.org/2000/svg" width="8208" height="290" viewBox="0 0 4104 290" preserveAspectRatio="none">
  <defs>
    <clipPath id="clip-path">
      <rect width="4104" height="290" fill="none" />
    </clipPath>
  </defs>
  <g id="Repeat_Grid_2" data-name="Repeat Grid 2" clipPath="url(#clip-path)">
    <g transform="translate(6813 1056)">
      <path id="Path_1918" data-name="Path 1918" d="M521,198.248v210c-8-17-20.92-44.85-49-40.53-52,8-48.17,67.53-105,67.53s-59.16-44-116-44-78.16,57-135,57-60.5-67-111-87c-52.84-20.93-52.33,72-109.16,72-28.42,0-42.63-12.5-56.84-25v-210c8,17,20.92,44.85,49,40.53,52-8,48.17-67.53,105-67.53s59.16,44,116,44,78.16-57,135-57,60.5,67,111,87c52.84,20.93,52.33-72,109.16-72C492.58,173.248,506.79,185.748,521,198.248Z" transform="translate(-6652 -1214.248)" fill="#fff" />
    </g>
    <g transform="translate(7495 1056)">
      <path id="Path_1918-2" data-name="Path 1918" d="M521,198.248v210c-8-17-20.92-44.85-49-40.53-52,8-48.17,67.53-105,67.53s-59.16-44-116-44-78.16,57-135,57-60.5-67-111-87c-52.84-20.93-52.33,72-109.16,72-28.42,0-42.63-12.5-56.84-25v-210c8,17,20.92,44.85,49,40.53,52-8,48.17-67.53,105-67.53s59.16,44,116,44,78.16-57,135-57,60.5,67,111,87c52.84,20.93,52.33-72,109.16-72C492.58,173.248,506.79,185.748,521,198.248Z" transform="translate(-6652 -1214.248)" fill="#fff" />
    </g>
    <g transform="translate(8177 1056)">
      <path id="Path_1918-3" data-name="Path 1918" d="M521,198.248v210c-8-17-20.92-44.85-49-40.53-52,8-48.17,67.53-105,67.53s-59.16-44-116-44-78.16,57-135,57-60.5-67-111-87c-52.84-20.93-52.33,72-109.16,72-28.42,0-42.63-12.5-56.84-25v-210c8,17,20.92,44.85,49,40.53,52-8,48.17-67.53,105-67.53s59.16,44,116,44,78.16-57,135-57,60.5,67,111,87c52.84,20.93,52.33-72,109.16-72C492.58,173.248,506.79,185.748,521,198.248Z" transform="translate(-6652 -1214.248)" fill="#fff" />
    </g>
    <g transform="translate(8859 1056)">
      <path id="Path_1918-4" data-name="Path 1918" d="M521,198.248v210c-8-17-20.92-44.85-49-40.53-52,8-48.17,67.53-105,67.53s-59.16-44-116-44-78.16,57-135,57-60.5-67-111-87c-52.84-20.93-52.33,72-109.16,72-28.42,0-42.63-12.5-56.84-25v-210c8,17,20.92,44.85,49,40.53,52-8,48.17-67.53,105-67.53s59.16,44,116,44,78.16-57,135-57,60.5,67,111,87c52.84,20.93,52.33-72,109.16-72C492.58,173.248,506.79,185.748,521,198.248Z" transform="translate(-6652 -1214.248)" fill="#fff" />
    </g>
    <g transform="translate(9541 1056)">
      <path id="Path_1918-5" data-name="Path 1918" d="M521,198.248v210c-8-17-20.92-44.85-49-40.53-52,8-48.17,67.53-105,67.53s-59.16-44-116-44-78.16,57-135,57-60.5-67-111-87c-52.84-20.93-52.33,72-109.16,72-28.42,0-42.63-12.5-56.84-25v-210c8,17,20.92,44.85,49,40.53,52-8,48.17-67.53,105-67.53s59.16,44,116,44,78.16-57,135-57,60.5,67,111,87c52.84,20.93,52.33-72,109.16-72C492.58,173.248,506.79,185.748,521,198.248Z" transform="translate(-6652 -1214.248)" fill="#fff" />
    </g>
    <g transform="translate(10223 1056)">
      <path id="Path_1918-6" data-name="Path 1918" d="M521,198.248v210c-8-17-20.92-44.85-49-40.53-52,8-48.17,67.53-105,67.53s-59.16-44-116-44-78.16,57-135,57-60.5-67-111-87c-52.84-20.93-52.33,72-109.16,72-28.42,0-42.63-12.5-56.84-25v-210c8,17,20.92,44.85,49,40.53,52-8,48.17-67.53,105-67.53s59.16,44,116,44,78.16-57,135-57,60.5,67,111,87c52.84,20.93,52.33-72,109.16-72C492.58,173.248,506.79,185.748,521,198.248Z" transform="translate(-6652 -1214.248)" fill="#fff" />
    </g>
  </g>
</svg>
