<svg xmlns="http://www.w3.org/2000/svg" width="48" height="48" viewBox="0 0 48 48">
  <g id="Group_1497" data-name="Group 1497" transform="translate(-266 -336)">
    <circle id="Ellipse_410" data-name="Ellipse 410" cx="24" cy="24" r="24" transform="translate(266 336)" fill="#fff" opacity="0.8"/>
    <g id="Group_1426" data-name="Group 1426" transform="translate(1 -3)">
      <g id="Group_1425" data-name="Group 1425" transform="translate(-672 -207)">
        <path id="Path_18" data-name="Path 18" d="M40.372,39.364l-7.149-7.34a13.033,13.033,0,0,0,2.84-8.157A12.707,12.707,0,0,0,23.532,11,12.7,12.7,0,0,0,11,23.867,12.7,12.7,0,0,0,23.532,36.735a12.269,12.269,0,0,0,7.938-2.91l7.149,7.334a1.215,1.215,0,0,0,1.754,0A1.288,1.288,0,0,0,40.372,39.364ZM23.532,34.174A10.187,10.187,0,0,1,13.488,23.867,10.193,10.193,0,0,1,23.532,13.555a10.313,10.313,0,0,1,0,20.619Z" transform="translate(934.943 544.186)" fill="#484848"/>
        <g id="Group_1094" data-name="Group 1094" transform="translate(236 132)">
          <line id="Line_284" data-name="Line 284" y2="11.603" transform="translate(722.301 430.5)" fill="none" stroke="#484848" stroke-linecap="round" stroke-width="2"/>
          <line id="Line_285" data-name="Line 285" x2="11.603" transform="translate(716.5 436.301)" fill="none" stroke="#484848" stroke-linecap="round" stroke-width="2"/>
        </g>
      </g>
    </g>
  </g>
</svg>
